<svg width="322" height="66" viewBox="0 0 322 66" fill="none" xmlns="http://www.w3.org/2000/svg">
<path d="M320.098 64.8793H307.848L298.256 49.9866L288.663 64.8793H276.562L291.762 41.7292L277.595 19.7587H289.696L320.098 64.8793Z" fill="white"/>
<path fill-rule="evenodd" clip-rule="evenodd" d="M320.097 21.2332L319.95 20.201L320.392 20.6434L320.097 21.2332ZM319.654 18.7265L319.507 18.1367L321.721 16.6622L320.687 19.4638L319.654 18.7265ZM318.621 13.4182L317.293 6.63538C317.44 6.48793 317.736 6.34048 317.736 6.19302C319.802 4.57104 320.392 2.06434 321.278 0C322.753 3.24397 322.015 10.9115 318.621 13.4182ZM317.293 6.63538L318.621 13.4182C318.474 13.4182 318.326 13.5657 318.178 13.7131C316.997 14.1555 315.669 13.8606 314.784 12.9758L314.194 10.1742C314.932 8.69971 315.965 7.52013 317.293 6.63538ZM319.507 18.2842L319.654 18.874L319.064 18.5791L319.507 18.2842ZM319.95 20.201L318.326 19.0215L316.112 20.496L316.703 23.2976L317.44 23.8874L319.211 24.0348L320.244 21.3807L319.95 20.201ZM317.293 26.689L316.997 24.7721L317.293 24.1823L319.064 24.3297L317.293 26.689ZM315.227 15.7775C315.522 15.1876 315.669 14.7453 315.522 14.5979C315.374 14.3029 315.079 14.1555 314.784 13.8605L315.227 15.7775ZM308.586 25.9517C308.881 25.3619 309.176 24.9195 309.176 24.7721C308.881 24.4772 308.586 24.3297 308.291 24.0348L308.586 25.9517ZM314.194 10.1742L314.784 12.9758C314.489 12.681 314.194 12.386 313.898 11.9437C313.751 11.3539 313.751 10.6166 314.194 10.1742ZM314.932 13.8605L315.227 15.7775C313.751 18.5791 311.98 21.3807 310.062 23.8874C309.471 23.2976 308.734 22.8552 307.995 22.4129L307.7 20.6434C309.323 18.1367 311.094 15.7775 313.161 13.4182H313.456C313.751 13.4182 314.341 13.5657 314.932 13.8605ZM316.112 20.6434L315.227 21.2332L316.112 23.0026L316.555 23.445L316.112 20.6434ZM316.85 24.0348V24.3297L310.062 33.3244L309.619 31.26L315.817 23.1501L316.85 24.0348ZM316.997 24.9195L310.209 33.9142L310.505 35.831L317.293 26.689L316.997 24.9195ZM309.619 30.8176L309.323 28.9008L314.932 21.3807L315.522 23.0026L309.619 30.8176ZM302.535 33.9142C303.273 32.882 307.11 28.1635 308.586 25.9517L308.291 24.1823C307.552 23.5925 306.963 23.1501 306.077 22.8552C305.634 23.1501 301.354 28.9008 300.174 30.5228L302.535 33.9142ZM307.7 20.7909L307.995 22.5603C307.7 22.4129 307.405 22.1179 307.11 21.8231C306.963 21.8231 307.257 21.3807 307.7 20.7909ZM309.176 28.9008L309.471 30.8176L304.601 37.1581L303.716 35.9786L309.176 28.9008ZM309.766 31.4075L310.062 33.3244L305.929 38.7802L305.044 37.4531L309.766 31.4075ZM310.209 33.9142L306.224 39.2225L307.11 40.4021L310.652 35.831L310.209 33.9142Z" fill="white"/>
<path d="M0 64.8797V19.6116H10.0353V55.7376H29.3682V64.7322H0V64.8797Z" fill="white"/>
<path d="M69.6562 58.5391C65.0814 62.9627 59.4733 65.1746 52.8323 65.1746C46.1913 65.1746 40.5833 62.9627 36.0083 58.5391C31.4334 54.1156 29.2197 48.5124 29.2197 41.877C29.2197 35.2416 31.4334 29.6384 36.0083 25.2148C40.5833 20.7912 46.1913 18.5794 52.8323 18.5794C59.4733 18.5794 65.0814 20.7912 69.6562 25.2148C74.2311 29.6384 76.445 35.2416 76.445 41.877C76.445 48.6598 74.2311 54.1156 69.6562 58.5391ZM66.2619 42.0244C66.2619 38.0432 64.9337 34.5044 62.4249 31.7028C59.7685 28.9011 56.6693 27.4266 52.8323 27.4266C48.9953 27.4266 45.8961 28.9011 43.2397 31.7028C40.5833 34.5044 39.4026 38.0432 39.4026 42.0244C39.4026 46.0057 40.7309 49.5446 43.2397 52.3462C45.8961 55.1477 48.9953 56.6223 52.8323 56.6223C56.6693 56.6223 59.7685 55.1477 62.4249 52.3462C64.9337 49.3971 66.2619 46.0057 66.2619 42.0244Z" fill="white"/>
<path d="M110.537 41.877H120.72V57.9493C116.292 62.9628 110.094 65.4695 102.125 65.4695C95.4834 65.4695 89.8758 63.2577 85.4479 58.8341C80.8731 54.4104 78.6592 48.9547 78.6592 42.1719C78.6592 35.5365 81.0207 29.9333 85.5956 25.3623C90.1704 20.9386 95.7787 18.5794 102.272 18.5794C108.766 18.5794 114.373 20.6438 119.243 24.9199L113.783 32.5875C111.717 30.818 109.946 29.6384 108.175 28.9011C106.404 28.1639 104.633 27.8689 102.715 27.8689C98.8778 27.8689 95.631 29.196 92.9749 31.8502C90.318 34.5043 88.9899 37.8957 88.9899 42.1719C88.9899 46.448 90.318 49.8394 92.8272 52.3462C95.3358 54.8528 98.2872 56.1799 101.829 56.1799C105.371 56.1799 108.175 55.4427 110.537 54.1156V41.877Z" fill="white"/>
<path d="M163.813 58.5391C159.239 62.9627 153.63 65.1746 146.989 65.1746C140.348 65.1746 134.741 62.9627 130.166 58.5391C125.591 54.1156 123.377 48.5124 123.377 41.877C123.377 35.2416 125.591 29.6384 130.166 25.2148C134.741 20.7912 140.348 18.5794 146.989 18.5794C153.63 18.5794 159.239 20.7912 163.813 25.2148C168.388 29.6384 170.602 35.2416 170.602 41.877C170.602 48.6598 168.388 54.1156 163.813 58.5391ZM160.419 42.0244C160.419 38.0432 159.091 34.5044 156.582 31.7028C153.926 28.9011 150.827 27.4266 146.989 27.4266C143.153 27.4266 140.054 28.9011 137.397 31.7028C134.741 34.5044 133.56 38.0432 133.56 42.0244C133.56 46.0057 134.888 49.5446 137.397 52.3462C140.054 55.1477 143.153 56.6223 146.989 56.6223C150.827 56.6223 153.926 55.1477 156.582 52.3462C159.091 49.3971 160.419 46.0057 160.419 42.0244Z" fill="white"/>
<path d="M215.76 36.4212L203.51 61.0459H197.46L185.359 36.4212V64.8797H175.323V19.6116H188.9L200.559 44.3837L212.218 19.6116H225.795V64.7322H215.76V36.4212Z" fill="white"/>
<path d="M265.346 64.8793L261.214 55.1474H242.325L238.192 64.8793H227.419L246.899 19.7587H256.64L276.12 64.8793H265.346ZM251.622 33.177L245.866 46.3002H257.229L251.622 33.177Z" fill="white"/>
</svg>
