<svg width="207" height="42" viewBox="0 0 207 42" fill="none" xmlns="http://www.w3.org/2000/svg">
<path d="M205.158 41.5818H197.307L191.159 32.0367L185.011 41.5818H177.255L186.997 26.7444L177.917 12.6631H185.673L205.158 41.5818Z" fill="white"/>
<path fill-rule="evenodd" clip-rule="evenodd" d="M205.158 13.6088L205.063 12.9473L205.347 13.2308L205.158 13.6088ZM204.874 12.0022L204.779 11.6242L206.198 10.6791L205.536 12.4747L204.874 12.0022ZM204.212 8.60002L203.36 4.25275C203.455 4.15825 203.644 4.06374 203.644 3.96924C204.969 2.92967 205.347 1.32308 205.915 0C206.86 2.07913 206.387 6.9934 204.212 8.60002ZM203.36 4.25275L204.212 8.60002C204.117 8.60002 204.023 8.69452 203.928 8.78902C203.171 9.07255 202.32 8.88355 201.753 8.31649L201.374 6.52088C201.847 5.57582 202.509 4.81981 203.36 4.25275ZM204.779 11.7187L204.874 12.0967L204.496 11.9077L204.779 11.7187ZM205.063 12.9473L204.023 12.1912L202.604 13.1363L202.982 14.9319L203.455 15.3099L204.59 15.4044L205.252 13.7033L205.063 12.9473ZM203.36 17.1055L203.171 15.877L203.36 15.4989L204.496 15.5934L203.36 17.1055ZM202.037 10.1121C202.225 9.73407 202.32 9.45058 202.225 9.35608C202.131 9.16705 201.942 9.07255 201.753 8.88351L202.037 10.1121ZM197.78 16.633C197.969 16.255 198.158 15.9715 198.158 15.877C197.969 15.6879 197.78 15.5934 197.591 15.4044L197.78 16.633ZM201.374 6.52088L201.753 8.31649C201.563 8.12749 201.374 7.93846 201.185 7.65497C201.09 7.27694 201.091 6.80441 201.374 6.52088ZM201.847 8.88351L202.037 10.1121C201.09 11.9077 199.956 13.7033 198.726 15.3099C198.347 14.9319 197.875 14.6484 197.402 14.3649L197.212 13.2308C198.253 11.6242 199.388 10.1121 200.712 8.60002H200.902C201.091 8.60002 201.469 8.69452 201.847 8.88351ZM202.604 13.2308L202.037 13.6088L202.604 14.7429L202.888 15.0264L202.604 13.2308ZM203.077 15.4044V15.5934L198.726 21.3583L198.442 20.0352L202.415 14.8374L203.077 15.4044ZM203.171 15.9715L198.821 21.7363L199.01 22.9649L203.36 17.1055L203.171 15.9715ZM198.442 19.7517L198.253 18.5231L201.847 13.7033L202.225 14.7429L198.442 19.7517ZM193.902 21.7363C194.375 21.0748 196.834 18.0506 197.78 16.633L197.591 15.4989C197.118 15.1209 196.74 14.8374 196.172 14.6484C195.889 14.8374 193.145 18.5231 192.389 19.5627L193.902 21.7363ZM197.212 13.3253L197.402 14.4594C197.212 14.3649 197.023 14.1758 196.834 13.9869C196.74 13.9869 196.929 13.7033 197.212 13.3253ZM198.158 18.5231L198.347 19.7517L195.226 23.8154L194.659 23.0594L198.158 18.5231ZM198.537 20.1297L198.726 21.3583L196.077 24.855L195.51 24.0045L198.537 20.1297ZM198.821 21.7363L196.267 25.1385L196.834 25.8946L199.104 22.9649L198.821 21.7363Z" fill="white"/>
<path d="M0 41.5835V12.5703H6.43186V35.7242H18.8227V41.489H0V41.5835Z" fill="white"/>
<path d="M44.6451 37.518C41.713 40.3532 38.1187 41.7708 33.8623 41.7708C29.6059 41.7708 26.0117 40.3532 23.0795 37.518C20.1473 34.6828 18.7285 31.0916 18.7285 26.8389C18.7285 22.5861 20.1473 18.9949 23.0795 16.1597C26.0117 13.3246 29.6059 11.907 33.8623 11.907C38.1187 11.907 41.713 13.3246 44.6451 16.1597C47.5772 18.9949 48.9962 22.5861 48.9962 26.8389C48.9962 31.1861 47.5772 34.6828 44.6451 37.518ZM42.4696 26.9334C42.4696 24.3817 41.6184 22.1136 40.0104 20.318C38.3078 18.5224 36.3215 17.5773 33.8623 17.5773C31.4031 17.5773 29.4168 18.5224 27.7142 20.318C26.0117 22.1136 25.255 24.3817 25.255 26.9334C25.255 29.4851 26.1062 31.7532 27.7142 33.5488C29.4168 35.3444 31.4031 36.2895 33.8623 36.2895C36.3215 36.2895 38.3078 35.3444 40.0104 33.5488C41.6184 31.6587 42.4696 29.4851 42.4696 26.9334Z" fill="white"/>
<path d="M70.845 26.8389H77.3715V37.14C74.5336 40.3532 70.5611 41.9598 65.4535 41.9598C61.1971 41.9598 57.603 40.5422 54.7651 37.707C51.833 34.8718 50.4141 31.3752 50.4141 27.0279C50.4141 22.7751 51.9276 19.1839 54.8597 16.2543C57.7918 13.4191 61.3863 11.907 65.5481 11.907C69.7099 11.907 73.304 13.2301 76.4253 15.9707L72.9259 20.885C71.6016 19.7509 70.4665 18.9949 69.3314 18.5224C68.1963 18.0499 67.0613 17.8608 65.832 17.8608C63.3726 17.8608 61.2917 18.7114 59.5893 20.4125C57.8865 22.1136 57.0353 24.2872 57.0353 27.0279C57.0353 29.7685 57.8865 31.9422 59.4947 33.5488C61.1024 35.1554 62.9941 36.0059 65.2642 36.0059C67.5344 36.0059 69.3314 35.5334 70.845 34.6829V26.8389Z" fill="white"/>
<path d="M104.991 37.518C102.059 40.3532 98.4643 41.7708 94.2078 41.7708C89.9514 41.7708 86.3574 40.3532 83.4253 37.518C80.4932 34.6828 79.0742 31.0916 79.0742 26.8389C79.0742 22.5861 80.4932 18.9949 83.4253 16.1597C86.3574 13.3246 89.9514 11.907 94.2078 11.907C98.4643 11.907 102.059 13.3246 104.991 16.1597C107.923 18.9949 109.342 22.5861 109.342 26.8389C109.342 31.1861 107.923 34.6828 104.991 37.518ZM102.815 26.9334C102.815 24.3817 101.964 22.1136 100.356 20.318C98.6535 18.5224 96.6672 17.5773 94.2078 17.5773C91.7489 17.5773 89.7626 18.5224 88.0598 20.318C86.3574 22.1136 85.6008 24.3817 85.6008 26.9334C85.6008 29.4851 86.452 31.7532 88.0598 33.5488C89.7626 35.3444 91.7489 36.2895 94.2078 36.2895C96.6672 36.2895 98.6535 35.3444 100.356 33.5488C101.964 31.6587 102.815 29.4851 102.815 26.9334Z" fill="white"/>
<path d="M138.286 23.3439L130.435 39.1264H126.557L118.801 23.3439V41.5835H112.369V12.5703H121.071L128.543 28.4472L136.016 12.5703H144.718V41.489H138.286V23.3439Z" fill="white"/>
<path d="M170.066 41.5818L167.418 35.3445H155.311L152.662 41.5818H145.758L158.243 12.6631H164.486L176.971 41.5818H170.066ZM161.27 21.2631L157.581 29.6741H164.864L161.27 21.2631Z" fill="white"/>
</svg>
