<svg width="29" height="28" viewBox="0 0 29 28" fill="none" xmlns="http://www.w3.org/2000/svg">
<path d="M14.5004 2.7998C17.5769 2.7998 20.5274 3.9798 22.7028 6.08021C24.8783 8.18062 26.1004 11.0294 26.1004 13.9998C26.1004 16.9702 24.8783 19.819 22.7028 21.9194C20.5274 24.0198 17.5769 25.1998 14.5004 25.1998C11.4239 25.1998 8.47337 24.0198 6.29795 21.9194C4.12253 19.819 2.90039 16.9702 2.90039 13.9998C2.90039 11.0294 4.12253 8.18062 6.29795 6.08021C8.47337 3.9798 11.4239 2.7998 14.5004 2.7998ZM14.5004 4.1998C13.1675 4.1998 11.8476 4.45329 10.6162 4.94579C9.3847 5.43828 8.26577 6.16014 7.32326 7.07016C6.38074 7.98017 5.6331 9.06052 5.12301 10.2495C4.61293 11.4385 4.35039 12.7129 4.35039 13.9998C4.35039 15.2868 4.61293 16.5611 5.12301 17.7501C5.6331 18.9391 6.38074 20.0194 7.32326 20.9295C8.26577 21.8395 9.3847 22.5613 10.6162 23.0538C11.8476 23.5463 13.1675 23.7998 14.5004 23.7998C17.1923 23.7998 19.774 22.7673 21.6775 20.9295C23.581 19.0916 24.6504 16.5989 24.6504 13.9998C24.6504 11.4007 23.581 8.90801 21.6775 7.07016C19.774 5.2323 17.1923 4.1998 14.5004 4.1998ZM10.3751 17.3976C11.4232 18.4164 12.8357 19.0089 14.3223 19.0531C15.8088 19.0974 17.2564 18.5901 18.3675 17.6356L18.6256 17.3976C18.753 17.2726 18.9244 17.1983 19.1058 17.1895C19.2871 17.1806 19.4654 17.2378 19.6052 17.3497C19.745 17.4617 19.8362 17.6202 19.8607 17.7939C19.8853 17.9677 19.8414 18.144 19.7378 18.288L19.6551 18.386L19.6218 18.4168C18.9449 19.0662 18.1421 19.5805 17.2593 19.9304C16.3766 20.2802 15.4311 20.4587 14.4768 20.4557C13.5226 20.4528 12.5783 20.2683 11.6979 19.9129C10.8175 19.5576 10.0182 19.0382 9.34564 18.3846C9.21008 18.2528 9.13431 18.0744 9.13499 17.8886C9.13567 17.7029 9.21275 17.525 9.34927 17.3941C9.48579 17.2632 9.67056 17.1901 9.86295 17.1907C10.0553 17.1914 10.2396 17.2658 10.3751 17.3976ZM18.1254 10.4998C18.51 10.4998 18.8788 10.6473 19.1507 10.9099C19.4226 11.1724 19.5754 11.5285 19.5754 11.8998C19.5754 12.2711 19.4226 12.6272 19.1507 12.8898C18.8788 13.1523 18.51 13.2998 18.1254 13.2998C17.7408 13.2998 17.372 13.1523 17.1001 12.8898C16.8282 12.6272 16.6754 12.2711 16.6754 11.8998C16.6754 11.5285 16.8282 11.1724 17.1001 10.9099C17.372 10.6473 17.7408 10.4998 18.1254 10.4998ZM10.8754 10.4998C11.26 10.4998 11.6288 10.6473 11.9007 10.9099C12.1726 11.1724 12.3254 11.5285 12.3254 11.8998C12.3254 12.2711 12.1726 12.6272 11.9007 12.8898C11.6288 13.1523 11.26 13.2998 10.8754 13.2998C10.4908 13.2998 10.122 13.1523 9.85009 12.8898C9.57816 12.6272 9.42539 12.2711 9.42539 11.8998C9.42539 11.5285 9.57816 11.1724 9.85009 10.9099C10.122 10.6473 10.4908 10.4998 10.8754 10.4998Z" fill="#656F79"/>
</svg>
