<svg width="12" height="23" viewBox="0 0 12 23" fill="none" xmlns="http://www.w3.org/2000/svg">
<path d="M9.99145 5.7094V17.1282C9.99145 19.2692 7.85043 21.4103 5.7094 21.4103C3.56838 21.4103 1.42735 19.2692 1.42735 17.1282V5.7094V4.28205C1.42735 2.8547 2.8547 1.42735 4.28205 1.42735C5.7094 1.42735 7.13675 2.8547 7.13675 4.28205V5.7094V14.2735V15.7009C7.13675 16.4145 6.42308 17.1282 5.7094 17.1282C4.99573 17.1282 4.28205 16.4145 4.28205 15.7009V5.7094H2.8547V15.7009C2.8547 17.1282 4.28205 18.5556 5.7094 18.5556C7.13675 18.5556 8.5641 17.1282 8.5641 15.7009V14.2735V4.28205C8.5641 2.14103 6.42308 0 4.28205 0C2.14103 0 0 2.14103 0 4.28205V5.7094V17.1282C0 19.9829 2.8547 22.8376 5.7094 22.8376C8.5641 22.8376 11.4188 19.9829 11.4188 17.1282V5.7094H9.99145Z" fill="#656F79"/>
</svg>
