<svg width="32" height="32" viewBox="0 0 32 32" fill="none" xmlns="http://www.w3.org/2000/svg">
<circle cx="16.4125" cy="16.3885" r="15" transform="rotate(92.2906 16.4125 16.3885)" fill="white"/>
<path d="M25.4044 16.7484C25.3605 17.8475 24.4252 18.7108 23.3261 18.6669C22.227 18.6229 21.3637 17.6877 21.4076 16.5885C21.4516 15.4894 22.3869 14.6261 23.486 14.6701C24.5851 14.714 25.4484 15.6493 25.4044 16.7484ZM9.49716 14.1105C8.39804 14.0665 7.46279 14.9299 7.41882 16.029C7.37486 17.1281 8.23817 18.0634 9.33729 18.1073C10.4364 18.1513 11.3717 17.288 11.4156 16.1888C11.4596 15.0897 10.5963 14.1545 9.49716 14.1105ZM16.4916 14.3903C15.3924 14.3463 14.4572 15.2096 14.4132 16.3088C14.3693 17.4079 15.2326 18.3431 16.3317 18.3871C17.4308 18.4311 18.3661 17.5677 18.41 16.4686C18.454 15.3695 17.5907 14.4343 16.4916 14.3903Z" fill="#4CCE5F"/>
</svg>
