<svg width="26" height="27" viewBox="0 0 26 27" fill="none" xmlns="http://www.w3.org/2000/svg">
<path d="M15.167 10.1249H18.2762C19.8578 10.1249 21.3095 11.2274 21.6128 12.8474C21.9487 14.6924 20.8112 16.3461 19.2078 16.7624L20.8653 18.4836C22.7828 17.4599 24.0612 15.3111 23.7903 12.8474C23.487 9.96739 20.9845 7.87489 18.1895 7.87489H15.167C14.5712 7.87489 14.0837 8.38114 14.0837 8.99989C14.0837 9.61864 14.5712 10.1249 15.167 10.1249ZM3.80284 3.94864C3.60028 3.73829 3.32555 3.62012 3.03909 3.62012C2.75263 3.62012 2.4779 3.73829 2.27534 3.94864C2.07278 4.15899 1.95898 4.44429 1.95898 4.74177C1.95898 5.03925 2.07278 5.32454 2.27534 5.53489L5.13534 8.50489C3.21784 9.52864 1.93951 11.6774 2.21034 14.1411C2.51367 17.0324 5.01617 19.1249 7.81117 19.1249H10.8337C11.4295 19.1249 11.917 18.6186 11.917 17.9999C11.917 17.3811 11.4295 16.8749 10.8337 16.8749H7.72451C6.14284 16.8749 4.69117 15.7724 4.38784 14.1524C4.05201 12.3074 5.20034 10.6536 6.79284 10.2374L9.08951 12.6224C8.84034 12.8361 8.66701 13.1399 8.66701 13.4999C8.66701 14.1186 9.15451 14.6249 9.75034 14.6249H11.0178L20.6595 24.6374C20.8621 24.8477 21.1368 24.9659 21.4233 24.9659C21.7097 24.9659 21.9844 24.8477 22.187 24.6374C22.3896 24.427 22.5034 24.1417 22.5034 23.8443C22.5034 23.5468 22.3896 23.2615 22.187 23.0511L3.80284 3.94864ZM15.167 12.3749L17.0195 14.2986C17.1707 14.1407 17.2735 13.9397 17.3149 13.7212C17.3563 13.5027 17.3345 13.2763 17.2523 13.0706C17.17 12.8649 17.031 12.689 16.8527 12.5652C16.6744 12.4414 16.4648 12.3752 16.2503 12.3749H15.167Z" fill="#656F79"/>
</svg>
