<svg width="40" height="40" viewBox="0 0 40 40" fill="none" xmlns="http://www.w3.org/2000/svg">
<path fill-rule="evenodd" clip-rule="evenodd" d="M3.90874 6.40844C4.15752 6.19233 4.46478 6.05482 4.79169 6.01329C5.1186 5.97176 5.45049 6.02807 5.74541 6.17511L35.7454 21.1751C36.0228 21.3133 36.2561 21.5262 36.4192 21.7896C36.5822 22.0531 36.6686 22.3569 36.6686 22.6668C36.6686 22.9767 36.5822 23.2804 36.4192 23.5439C36.2561 23.8074 36.0228 24.0202 35.7454 24.1584L5.74541 39.1584C5.45051 39.306 5.11848 39.3628 4.79131 39.3215C4.46415 39.2803 4.15657 39.143 3.90748 38.9269C3.65839 38.7108 3.479 38.4257 3.392 38.1077C3.305 37.7896 3.31431 37.4529 3.41874 37.1401L7.68874 24.3334H16.6671C17.1091 24.3334 17.533 24.1578 17.8456 23.8453C18.1581 23.5327 18.3337 23.1088 18.3337 22.6668C18.3337 22.2248 18.1581 21.8008 17.8456 21.4883C17.533 21.1757 17.1091 21.0001 16.6671 21.0001H7.68874L3.41707 8.19344C3.31318 7.8808 3.30427 7.54437 3.39149 7.22667C3.4787 6.90896 3.65978 6.62423 3.90874 6.40844Z" fill="#4CCE5F"/>
</svg>
