<svg width="34" height="34" viewBox="0 0 34 34" fill="none" xmlns="http://www.w3.org/2000/svg">
<path d="M27.1158 18.3316C27.1725 17.9066 27.2008 17.4674 27.2008 16.9999C27.2008 16.5466 27.1725 16.0932 27.1016 15.6682L29.9775 13.4299C30.1014 13.3278 30.1861 13.1858 30.2171 13.0282C30.2481 12.8707 30.2235 12.7072 30.1475 12.5657L27.4275 7.86241C27.3474 7.72012 27.2195 7.61077 27.0665 7.55373C26.9136 7.49668 26.7453 7.49562 26.5916 7.55074L23.2058 8.91074C22.4975 8.37241 21.7466 7.91907 20.9108 7.57907L20.4008 3.98074C20.3757 3.81857 20.2933 3.67078 20.1685 3.56421C20.0438 3.45763 19.8849 3.39933 19.7208 3.39991H14.2808C13.9408 3.39991 13.6716 3.64074 13.615 3.98074L13.105 7.57907C12.2691 7.91907 11.5041 8.38657 10.81 8.91074L7.42414 7.55074C7.11247 7.43741 6.7583 7.55074 6.5883 7.86241L3.88247 12.5657C3.71247 12.8632 3.76914 13.2316 4.05247 13.4299L6.9283 15.6682C6.85747 16.0932 6.8008 16.5607 6.8008 16.9999C6.8008 17.4391 6.82914 17.9066 6.89997 18.3316L4.02414 20.5699C3.90021 20.6721 3.81554 20.814 3.78454 20.9716C3.75354 21.1292 3.77814 21.2926 3.85414 21.4341L6.57414 26.1374C6.74414 26.4491 7.0983 26.5482 7.40997 26.4491L10.7958 25.0891C11.5041 25.6274 12.255 26.0807 13.0908 26.4207L13.6008 30.0191C13.6716 30.3591 13.9408 30.5999 14.2808 30.5999H19.7208C20.0608 30.5999 20.3441 30.3591 20.3866 30.0191L20.8966 26.4207C21.7325 26.0807 22.4975 25.6274 23.1916 25.0891L26.5775 26.4491C26.8891 26.5624 27.2433 26.4491 27.4133 26.1374L30.1333 21.4341C30.3033 21.1224 30.2325 20.7682 29.9633 20.5699L27.1158 18.3316ZM17.0008 22.0999C14.1958 22.0999 11.9008 19.8049 11.9008 16.9999C11.9008 14.1949 14.1958 11.8999 17.0008 11.8999C19.8058 11.8999 22.1008 14.1949 22.1008 16.9999C22.1008 19.8049 19.8058 22.0999 17.0008 22.0999Z" fill="#656F79"/>
</svg>
