<svg width="14" height="14" viewBox="0 0 14 14" fill="none" xmlns="http://www.w3.org/2000/svg">
<path d="M6.52101 10.7234C6.81507 10.5358 7.1849 10.5358 7.47896 10.7234L10.477 12.6358L9.66189 9.067C9.58194 8.71695 9.69622 8.34961 9.95791 8.1155L12.6259 5.72862L9.12411 5.43542C8.78063 5.40666 8.48143 5.17963 8.34911 4.84736L6.99998 1.45971L5.65086 4.84736C5.51853 5.17963 5.21933 5.40666 4.87586 5.43542L1.37404 5.72862L4.04206 8.1155C4.30375 8.34961 4.41803 8.71695 4.33808 9.067L3.52296 12.6358L6.52101 10.7234ZM3.72065 13.8592C3.28756 14.1354 2.72202 13.9927 2.45749 13.5404C2.33094 13.324 2.29153 13.0642 2.34786 12.8175L3.23946 8.91383L0.321117 6.30301C-0.0642995 5.9582 -0.109102 5.35238 0.221049 4.94985C0.378988 4.75729 0.603476 4.63783 0.845476 4.61757L4.67585 4.29686L6.15155 0.59138C6.34645 0.102008 6.88429 -0.129703 7.35287 0.073838C7.57703 0.171209 7.75518 0.357271 7.84841 0.59138L9.32412 4.29686L13.1545 4.61757C13.6604 4.65993 14.0376 5.12255 13.997 5.65087C13.9776 5.9036 13.8632 6.13806 13.6789 6.30301L10.7605 8.91383L11.6521 12.8175C11.7699 13.3331 11.4651 13.8507 10.9715 13.9737C10.7354 14.0325 10.4865 13.9913 10.2793 13.8592L6.99998 11.7673L3.72065 13.8592Z" fill="black"/>
</svg>
