<?xml version="1.0" encoding="UTF-8" standalone="no"?>
<!-- Created with Inkscape (http://www.inkscape.org/) -->

<svg
   version="1.1"
   id="svg2"
   width="520.44"
   height="313.23999"
   viewBox="0 0 520.44 313.23999"
   sodipodi:docname="Logo_170497821044.eps"
   xmlns:inkscape="http://www.inkscape.org/namespaces/inkscape"
   xmlns:sodipodi="http://sodipodi.sourceforge.net/DTD/sodipodi-0.dtd"
   xmlns="http://www.w3.org/2000/svg"
   xmlns:svg="http://www.w3.org/2000/svg">
  <defs
     id="defs6" />
  <sodipodi:namedview
     id="namedview4"
     pagecolor="#ffffff"
     bordercolor="#000000"
     borderopacity="0.25"
     inkscape:showpageshadow="2"
     inkscape:pageopacity="0.0"
     inkscape:pagecheckerboard="0"
     inkscape:deskcolor="#d1d1d1" />
  <g
     id="g8"
     inkscape:groupmode="layer"
     inkscape:label="ink_ext_XXXXXX"
     transform="matrix(1.3333333,0,0,-1.3333333,0,313.24)">
    <g
       id="g10"
       transform="scale(0.1)">
      <path
         d="m 1405.57,965.719 c 0,0 -133.07,131.961 -389.32,189.371 -272.895,64.33 -455.895,94.82 -682.203,297.63 C 144.41,1625.27 64.5547,1892.46 64.5547,1892.46 184.32,1747.03 274.164,1621.87 533.707,1489.99 796.617,1351.3 1016.25,1402 1292.47,1300.64 c 222.95,-74.43 282.84,-125.17 282.84,-125.17 0,0 -86.55,-91.38 -169.74,-209.751 v 0"
         style="fill:#7cc0eb;fill-opacity:1;fill-rule:nonzero;stroke:none"
         id="path12" />
      <path
         d="m 1405.57,965.719 c 0,0 -133.07,131.961 -389.32,189.371 -272.895,64.33 -455.895,94.82 -682.203,297.63 C 144.41,1625.27 64.5547,1892.46 64.5547,1892.46 184.32,1747.03 274.164,1621.87 533.707,1489.99 796.617,1351.3 1016.25,1402 1292.47,1300.64 c 222.95,-74.43 282.84,-125.17 282.84,-125.17 0,0 -86.55,-91.38 -169.74,-209.751 z"
         style="fill:none;stroke:#ffffff;stroke-width:9.921;stroke-linecap:butt;stroke-linejoin:miter;stroke-miterlimit:4;stroke-dasharray:none;stroke-opacity:1"
         id="path14" />
      <path
         d="m 1245.85,607.262 c 0,0 -119.78,158.949 -322.78,243.519 C 716.742,935.262 314.105,1023.24 84.5156,1665.86 310.766,1300.64 453.891,1239.73 666.84,1158.5 c 289.512,-111.57 459.23,-74.41 668.88,-277.352 0,0 -29.95,-33.789 -69.87,-121.777 -39.98,-81.082 -20,-152.109 -20,-152.109 v 0"
         style="fill:#a7d3f2;fill-opacity:1;fill-rule:nonzero;stroke:none"
         id="path16" />
      <path
         d="m 1245.85,607.262 c 0,0 -119.78,158.949 -322.78,243.519 C 716.742,935.262 314.105,1023.24 84.5156,1665.86 310.766,1300.64 453.891,1239.73 666.84,1158.5 c 289.512,-111.57 459.23,-74.41 668.88,-277.352 0,0 -29.95,-33.789 -69.87,-121.777 -39.98,-81.082 -20,-152.109 -20,-152.109 z"
         style="fill:none;stroke:#ffffff;stroke-width:9.921;stroke-linecap:butt;stroke-linejoin:miter;stroke-miterlimit:4;stroke-dasharray:none;stroke-opacity:1"
         id="path18" />
      <path
         d="m 616.938,1821.43 c 386.882,-110.95 796.792,-31.47 1033.762,-60.36 36.14,89.76 87.12,162.86 147.52,210.38 -61.57,15.43 -135.49,29.24 -202.98,29.24 -452.49,0 -921.779,-270.57 -1590.60719,344.98 0,0 149.72619,-392.32 612.30519,-524.24"
         style="fill:#289ee0;fill-opacity:1;fill-rule:nonzero;stroke:none"
         id="path20" />
      <path
         d="m 616.938,1821.43 c 386.882,-110.95 796.792,-31.47 1033.762,-60.36 36.14,89.76 87.12,162.86 147.52,210.38 -61.57,15.43 -135.49,29.24 -202.98,29.24 -452.49,0 -921.779,-270.57 -1590.60719,344.98 0,0 149.72619,-392.32 612.30519,-524.24 z"
         style="fill:none;stroke:#ffffff;stroke-width:9.921;stroke-linecap:butt;stroke-linejoin:miter;stroke-miterlimit:4;stroke-dasharray:none;stroke-opacity:1"
         id="path22" />
      <path
         d="m 1592.42,1444.1 c 0,71.08 7.92,139.17 22.44,202.25 -93,8.43 -226.09,8.97 -402.29,16.15 -149.75,3.36 -409.265,-10.19 -642.254,77.74 -239.57,98.1 -395.976,213.11 -539.0621,385.59 0,0 119.8051,-304.4 409.2971,-483.63 242.949,-159 425.949,-148.82 712.109,-199.57 144.24,-28.09 330.78,-82.06 452.92,-153.95 -8.5,49.55 -13.16,101.6 -13.16,155.42"
         style="fill:#51aee5;fill-opacity:1;fill-rule:nonzero;stroke:none"
         id="path24" />
      <path
         d="m 1592.42,1444.1 c 0,71.08 7.92,139.17 22.44,202.25 -93,8.43 -226.09,8.97 -402.29,16.15 -149.75,3.36 -409.265,-10.19 -642.254,77.74 -239.57,98.1 -395.976,213.11 -539.0621,385.59 0,0 119.8051,-304.4 409.2971,-483.63 242.949,-159 425.949,-148.82 712.109,-199.57 144.24,-28.09 330.78,-82.06 452.92,-153.95 -8.5,49.55 -13.16,101.6 -13.16,155.42 z"
         style="fill:none;stroke:#ffffff;stroke-width:9.921;stroke-linecap:butt;stroke-linejoin:miter;stroke-miterlimit:4;stroke-dasharray:none;stroke-opacity:1"
         id="path26" />
      <path
         d="m 2288.85,1545.38 c 44.64,0 60.96,14.25 60.96,83.3 0,176.64 -95.49,359.41 -306.68,359.41 -239.63,0 -385.84,-239.66 -385.84,-501.6 0,-312.76 164.49,-481.32 369.59,-481.32 227.44,0 322.93,188.89 322.93,239.64 0,16.26 -6.16,24.39 -22.4,24.39 -42.61,0 -30.43,-162.46 -243.68,-162.46 -154.34,0 -239.6,172.63 -239.6,367.56 0,65 8.09,71.08 42.59,71.08 z m -105.62,192.92 c 0,-117.8 -54.8,-144.19 -245.7,-144.19 -67.02,0 -85.31,10.15 -85.31,42.64 0,40.62 28.43,302.61 196.99,302.61 99.51,0 134.02,-115.75 134.02,-201.06"
         style="fill:#214597;fill-opacity:1;fill-rule:nonzero;stroke:none"
         id="path28" />
      <path
         d="m 2455.33,1283.43 c 0,26.37 10.17,38.57 30.5,38.57 18.26,0 30.42,-18.31 56.84,-93.44 36.57,-107.62 91.38,-174.62 188.91,-174.62 93.39,0 150.26,77.15 150.26,176.68 0,237.58 -430.59,227.43 -430.59,485.37 0,178.69 172.66,272.1 312.82,272.1 71.02,0 154.35,-14.21 186.81,-28.42 24.37,-10.16 26.39,-22.35 26.39,-144.21 0,-64.98 -6.09,-77.16 -36.55,-77.16 -56.85,0 -26.39,201.06 -209.14,201.06 -85.33,0 -138.09,-56.86 -138.09,-136.07 0,-213.22 430.52,-188.87 430.52,-495.54 0,-170.58 -146.24,-302.58 -357.42,-302.58 -85.32,0 -211.26,32.5 -211.26,69.07 v 209.19"
         style="fill:#214597;fill-opacity:1;fill-rule:nonzero;stroke:none"
         id="path30" />
      <path
         d="m 3363.08,1051.89 c 0,22.35 2.04,26.41 8.13,26.41 8.16,0 58.92,-52.8 164.57,-52.8 194.87,0 367.53,186.82 367.53,501.63 0,257.87 -130,460.96 -308.69,460.96 -123.83,0 -221.34,-129.96 -229.5,-129.96 -6.09,0 -8.08,2.03 -8.08,81.23 0,44.67 -2.03,48.73 -12.18,48.73 -18.32,0 -24.42,-18.27 -101.58,-56.86 -123.85,-62.95 -168.55,-52.81 -168.55,-83.27 0,-18.27 20.3,-18.27 46.71,-26.4 44.68,-12.19 75.17,-10.15 75.17,-69.06 V 716.82 c 0,-56.859 -40.66,-52.82 -83.29,-60.922 -24.37,-4.066 -44.67,-2.058 -44.67,-28.437 0,-22.34 22.33,-24.379 48.72,-24.379 58.9,0 117.82,8.129 176.67,8.129 115.75,0 156.35,-8.129 205.16,-8.129 26.36,0 34.5,10.18 34.5,24.379 0,14.219 -8.14,20.309 -46.66,24.371 -101.64,10.18 -123.96,32.469 -123.96,119.809 z m 0,702.66 c 0,62.95 67.05,132 148.28,132 123.86,0 205.1,-154.37 205.1,-410.19 0,-247.8 -81.24,-402.12 -211.18,-402.12 -93.42,0 -142.2,73.1 -142.2,211.2 v 469.11"
         style="fill:#214597;fill-opacity:1;fill-rule:nonzero;stroke:none"
         id="path32" />
      <path
         d="m 1374.31,454.191 c 30.53,0 32.66,29.11 39.76,29.11 2.13,0 3.9,-1.422 3.9,-6.391 0,-10.648 -17.4,-40.469 -55.73,-40.469 -39.75,0 -66.74,35.5 -66.74,88.739 0,46.859 29.82,83.07 73.84,83.07 12.42,0 29.82,-2.828 36.2,-6.738 4.97,-2.852 5.69,-3.903 5.69,-19.18 0,-24.492 -0.72,-25.91 -7.82,-25.91 -6.38,0 -8.51,2.488 -13.83,12.437 -12.79,23.411 -14.57,30.879 -24.15,30.879 -16.68,0 -37.27,-24.148 -37.27,-66.039 0,-44.73 19.88,-79.508 46.15,-79.508"
         style="fill:#214597;fill-opacity:1;fill-rule:nonzero;stroke:none"
         id="path34" />
      <path
         d="m 1569.9,522.352 c 0,45.777 -28.75,85.898 -68.16,85.898 -39.4,0 -68.15,-40.121 -68.15,-85.898 0,-45.801 28.75,-85.911 68.15,-85.911 39.41,0 68.16,40.11 68.16,85.911 z m -68.16,-77.383 c -23.07,0 -35.49,44.363 -35.49,77.383 0,33.007 12.42,77.386 35.49,77.386 23.07,0 35.5,-44.379 35.5,-77.386 0,-33.02 -12.43,-77.383 -35.5,-77.383"
         style="fill:#214597;fill-opacity:1;fill-rule:nonzero;stroke:none"
         id="path36" />
      <path
         d="m 1632.37,464.129 c 0,-10.289 3.19,-12.418 13.13,-14.899 6.39,-1.781 7.45,-3.21 7.45,-4.98 0,-2.129 -1.77,-3.551 -3.9,-3.551 -6.39,0 -19.88,1.422 -29.82,1.422 -9.23,0 -20.94,-1.422 -28.4,-1.422 -5.32,0 -6.74,0.711 -6.74,3.199 0,2.84 1.06,3.903 6.39,5.332 9.94,2.481 12.78,3.54 12.78,13.481 v 107.551 c 0,7.109 -2.84,9.937 -9.58,10.308 -5.69,0.352 -7.1,0 -7.1,2.84 0,3.192 1.06,2.828 18.1,10.289 21.65,9.582 22.37,16.68 26.26,16.68 1.78,0 2.84,-0.699 2.84,-7.809 v -15.621 c 0,-1.769 0.37,-2.129 1.07,-2.129 2.13,-0.359 16.33,23.43 43.66,23.43 27.7,0 29.46,-24.488 34.8,-24.488 5.32,0 16.68,24.488 42.94,24.488 19.88,0 37.98,-13.852 37.98,-40.82 v -104 c 0,-7.461 1.78,-11.02 11.36,-13.848 6.75,-2.133 9.59,-2.48 9.59,-5.332 0,-2.84 -2.13,-3.551 -4.62,-3.551 -7.1,0 -20.58,1.422 -30.88,1.422 -8.52,0 -22.01,-1.422 -27.33,-1.422 -3.91,0 -5.68,1.422 -5.68,3.199 0,3.551 4.26,4.614 6.74,5.332 11.01,3.18 11.72,4.61 11.72,17.739 v 99.402 c 0,15.609 -7.81,24.129 -22.01,24.129 -15.98,0 -29.81,-14.551 -29.81,-29.102 v -92.296 c 0,-14.551 1.76,-18.461 12.42,-20.231 6.74,-1.422 9.94,-2.492 9.94,-5.332 0,-1.769 -1.07,-2.84 -4.27,-2.84 -8.16,0 -21.65,1.422 -32.65,1.422 -6.75,0 -20.94,-1.422 -28.04,-1.422 -3.91,0 -4.62,1.422 -4.62,3.551 0,2.488 1.78,3.551 8.16,4.98 4.97,1.051 9.94,3.18 9.94,11.34 v 102.602 c 0,18.109 -10.29,27.328 -21.29,27.328 -17.76,0 -30.53,-13.48 -30.53,-30.531 v -95.84"
         style="fill:#214597;fill-opacity:1;fill-rule:nonzero;stroke:none"
         id="path38" />
      <path
         d="m 1869.14,464.129 c 0,-10.289 3.19,-12.418 13.13,-14.899 6.39,-1.781 7.45,-3.21 7.45,-4.98 0,-2.129 -1.78,-3.551 -3.9,-3.551 -6.39,0 -19.88,1.422 -29.82,1.422 -9.23,0 -20.95,-1.422 -28.4,-1.422 -5.32,0 -6.75,0.711 -6.75,3.199 0,2.84 1.07,3.903 6.39,5.332 9.94,2.481 12.78,3.54 12.78,13.481 v 107.551 c 0,7.109 -2.84,9.937 -9.58,10.308 -5.68,0.352 -7.1,0 -7.1,2.84 0,3.192 1.07,2.828 18.1,10.289 21.66,9.582 22.36,16.68 26.27,16.68 1.78,0 2.84,-0.699 2.84,-7.809 v -15.621 c 0,-1.769 0.35,-2.129 1.07,-2.129 2.13,-0.359 16.32,23.43 43.66,23.43 27.68,0 29.46,-24.488 34.78,-24.488 5.34,0 16.69,24.488 42.96,24.488 19.88,0 37.98,-13.852 37.98,-40.82 v -104 c 0,-7.461 1.78,-11.02 11.36,-13.848 6.75,-2.133 9.59,-2.48 9.59,-5.332 0,-2.84 -2.13,-3.551 -4.62,-3.551 -7.1,0 -20.59,1.422 -30.88,1.422 -8.53,0 -22.01,-1.422 -27.33,-1.422 -3.91,0 -5.69,1.422 -5.69,3.199 0,3.551 4.26,4.614 6.75,5.332 11.01,3.18 11.71,4.61 11.71,17.739 v 99.402 c 0,15.609 -7.8,24.129 -22,24.129 -15.98,0 -29.83,-14.551 -29.83,-29.102 v -92.296 c 0,-14.551 1.78,-18.461 12.44,-20.231 6.73,-1.422 9.93,-2.492 9.93,-5.332 0,-1.769 -1.07,-2.84 -4.26,-2.84 -8.17,0 -21.65,1.422 -32.66,1.422 -6.75,0 -20.94,-1.422 -28.04,-1.422 -3.9,0 -4.61,1.422 -4.61,3.551 0,2.488 1.77,3.551 8.16,4.98 4.97,1.051 9.94,3.18 9.94,11.34 v 102.602 c 0,18.109 -10.29,27.328 -21.3,27.328 -17.75,0 -30.52,-13.48 -30.52,-30.531 v -95.84"
         style="fill:#214597;fill-opacity:1;fill-rule:nonzero;stroke:none"
         id="path40" />
      <path
         d="m 2188.26,467.68 c 0,-7.461 4.25,-8.871 10.29,-10.289 4.61,-0.711 8.88,-1.422 8.88,-3.551 0,-3.559 -2.85,-2.852 -11.01,-5.328 -6.75,-2.133 -18.46,-5.68 -25.2,-10.301 -1.78,-1.051 -3.56,-1.77 -5.33,-1.77 -2.84,0 -2.84,3.547 -2.84,7.098 v 14.199 c 0,3.203 -1.42,4.262 -2.84,4.262 -3.54,0 -20.59,-24.141 -44.01,-24.141 -23.79,0 -38.7,13.852 -38.7,45.801 v 99.75 c 0,10.641 -7.46,11.352 -13.49,11.711 -3.91,0.359 -7.8,1.059 -7.8,4.617 0,2.832 1.76,4.602 5.32,4.602 h 39.4 c 4.61,0 5.68,-1.77 5.68,-6.379 V 485.43 c 0,-20.59 8.52,-29.821 24.49,-29.821 15.98,0 28.05,12.782 28.05,29.11 v 98.34 c 0,10.64 -7.46,11.339 -13.49,11.703 -3.91,0.359 -7.81,1.07 -7.81,4.617 0,2.84 1.77,4.609 5.32,4.609 h 39.4 c 4.62,0 5.69,-1.769 5.69,-6.379 V 467.68"
         style="fill:#214597;fill-opacity:1;fill-rule:nonzero;stroke:none"
         id="path42" />
      <path
         d="m 2316.75,561.75 c 0,20.582 -9.23,28.75 -22.01,28.75 -13.49,0 -24.49,-9.219 -30.53,-26.621 v -98.688 c 0,-11 4.26,-13.832 11.71,-15.961 7.1,-2.128 8.17,-3.21 8.17,-4.98 0,-2.129 -1.07,-3.551 -4.26,-3.551 -6.74,0 -16.33,1.422 -30.88,1.422 -11.36,0 -22.36,-1.422 -28.05,-1.422 -3.9,0 -5.67,0.711 -5.67,3.91 0,2.84 2.83,4.262 7.45,5.321 9.58,2.129 12.42,4.621 12.42,16.679 V 566 c 0,10.66 -1.77,11.719 -7.45,13.5 -4.97,1.422 -10.65,0 -10.65,3.91 0,4.961 7.1,4.25 21.66,12.07 20.23,10.989 18.1,14.899 22.71,14.899 2.13,0 2.84,-1.418 2.84,-5.68 v -24.5 h 0.72 c 11.71,14.199 21.3,28.051 41.88,28.051 22.01,0 39.04,-12.07 39.04,-44.73 V 462 c 0,-7.102 3.2,-11.359 11.72,-12.77 7.1,-1.429 8.17,-2.851 8.17,-5.691 0,-1.418 -1.78,-2.84 -4.62,-2.84 -4.26,0 -12.42,1.422 -30.53,1.422 -8.51,0 -17.39,-1.422 -25.91,-1.422 -4.26,0 -6.39,1.071 -6.39,3.551 0,2.852 1.07,3.551 6.03,4.98 10.66,3.18 12.43,4.961 12.43,12.77 v 99.75"
         style="fill:#214597;fill-opacity:1;fill-rule:nonzero;stroke:none"
         id="path44" />
      <path
         d="m 2409.39,667.891 c 9.94,0 16.33,-9.231 16.33,-19.871 0,-10.661 -6.39,-19.891 -16.33,-19.891 -9.93,0 -16.33,9.23 -16.33,19.891 0,10.64 6.4,19.871 16.33,19.871 z m 13.85,-202.7 c 0,-11 3.19,-14.91 13.13,-15.961 6.04,-0.718 8.17,-2.492 8.17,-4.261 0,-2.137 -1.07,-4.27 -6.04,-4.27 -6.75,0 -15.98,1.422 -30.53,1.422 -15.62,0 -26.62,-1.422 -32.3,-1.422 -3.91,0 -5.68,0.711 -5.68,3.91 0,2.84 3.55,4.262 7.46,5.321 13.83,3.91 16.68,4.621 16.68,16.679 v 102.95 c 0,9.589 -5.33,9.941 -12.43,11.363 -3.9,0.707 -6.74,1.058 -6.74,4.617 0,3.902 2.49,4.25 6.74,5.32 27.69,7.102 35.5,17.391 38.34,17.391 2.13,0 3.2,-1.059 3.2,-4.969 v -138.09"
         style="fill:#214597;fill-opacity:1;fill-rule:nonzero;stroke:none"
         id="path46" />
      <path
         d="m 2537.53,454.191 c 30.53,0 32.66,29.11 39.76,29.11 2.13,0 3.91,-1.422 3.91,-6.391 0,-10.648 -17.4,-40.469 -55.74,-40.469 -39.75,0 -66.73,35.5 -66.73,88.739 0,46.859 29.82,83.07 73.83,83.07 12.43,0 29.82,-2.828 36.21,-6.738 4.98,-2.852 5.68,-3.903 5.68,-19.18 0,-24.492 -0.7,-25.91 -7.8,-25.91 -6.4,0 -8.53,2.488 -13.85,12.437 -12.79,23.411 -14.55,30.879 -24.14,30.879 -16.68,0 -37.28,-24.148 -37.28,-66.039 0,-44.73 19.88,-79.508 46.15,-79.508"
         style="fill:#214597;fill-opacity:1;fill-rule:nonzero;stroke:none"
         id="path48" />
      <path
         d="m 2700.46,584.109 c 0,19.172 -7.45,24.141 -35.14,24.141 -42.59,0 -70.99,-38.34 -70.99,-52.191 0,-7.09 4.26,-11.707 12.77,-11.707 13.14,0 20.24,9.578 22.02,25.207 2.13,18.812 13.83,30.179 27.33,30.179 9.58,0 14.9,-6.386 14.9,-15.629 v -30.527 c 0,-22.363 -74.54,-47.203 -74.54,-86.25 0,-20.953 11.36,-30.891 29.82,-30.891 27.69,0 38.34,27.688 42.59,27.688 4.27,0 6.75,-26.27 29.47,-26.27 15.26,0 30.89,16.692 30.89,28.403 0,2.84 -1.07,4.258 -3.2,4.258 -5.68,0 -6.75,-11.348 -14.2,-11.348 -5.33,0 -11.72,4.258 -11.72,18.457 z m -29.11,-80.211 c 0,-31.957 -9.23,-44.726 -25.91,-44.726 -9.94,0 -15.97,8.508 -15.97,19.508 1.06,24.851 33.72,52.89 38.34,52.89 2.48,0 3.54,-0.699 3.54,-4.961 v -22.711"
         style="fill:#214597;fill-opacity:1;fill-rule:nonzero;stroke:none"
         id="path50" />
      <path
         d="m 2773.23,602.57 h 22.72 c 3.55,0 4.26,-1.422 4.26,-6.039 0,-4.609 -0.71,-6.031 -4.26,-6.031 H 2775 c -1.41,0 -1.77,-1.418 -1.77,-2.129 v -108.98 c 0,-15.61 3.55,-21.653 10.65,-21.653 9.94,0 13.14,17.032 18.11,17.032 2.13,0 3.19,-1.399 3.19,-4.61 0,-5.32 -11.01,-33.719 -34.08,-33.719 -20.94,0 -26.97,19.168 -26.97,42.598 V 584.82 c 0,4.262 -1.07,5.68 -3.91,5.68 h -9.59 c -3.19,0 -3.55,1.07 -3.55,3.199 0,4.262 6.39,5.68 19.17,19.52 18.11,19.519 17.05,34.801 23.43,34.801 1.78,0 3.55,-2.141 3.55,-5.34 v -40.11"
         style="fill:#214597;fill-opacity:1;fill-rule:nonzero;stroke:none"
         id="path52" />
      <path
         d="m 2843.16,667.891 c 9.94,0 16.33,-9.231 16.33,-19.871 0,-10.661 -6.39,-19.891 -16.33,-19.891 -9.94,0 -16.33,9.23 -16.33,19.891 0,10.64 6.39,19.871 16.33,19.871 z m 13.84,-202.7 c 0,-11 3.2,-14.91 13.13,-15.961 6.04,-0.718 8.17,-2.492 8.17,-4.261 0,-2.137 -1.07,-4.27 -6.04,-4.27 -6.74,0 -15.97,1.422 -30.53,1.422 -15.61,0 -26.62,-1.422 -32.29,-1.422 -3.91,0 -5.69,0.711 -5.69,3.91 0,2.84 3.55,4.262 7.46,5.321 13.84,3.91 16.69,4.621 16.69,16.679 v 102.95 c 0,9.589 -5.34,9.941 -12.43,11.363 -3.9,0.707 -6.74,1.058 -6.74,4.617 0,3.902 2.48,4.25 6.74,5.32 27.69,7.102 35.49,17.391 38.33,17.391 2.13,0 3.2,-1.059 3.2,-4.969 v -138.09"
         style="fill:#214597;fill-opacity:1;fill-rule:nonzero;stroke:none"
         id="path54" />
      <path
         d="m 3002.9,530.871 c 7.8,0 10.64,2.481 10.64,14.551 0,30.879 -16.68,62.828 -53.6,62.828 -41.89,0 -67.44,-41.879 -67.44,-87.68 0,-54.66 28.75,-84.129 64.59,-84.129 39.77,0 56.45,33.02 56.45,41.891 0,2.84 -1.06,4.258 -3.91,4.258 -7.45,0 -5.32,-28.399 -42.59,-28.399 -26.98,0 -41.89,30.168 -41.89,64.258 0,11.352 1.42,12.422 7.45,12.422 z m -18.47,33.719 c 0,-20.59 -9.58,-25.211 -42.95,-25.211 -11.71,0 -14.91,1.781 -14.91,7.461 0,7.09 4.97,52.898 34.43,52.898 17.39,0 23.43,-20.238 23.43,-35.148"
         style="fill:#214597;fill-opacity:1;fill-rule:nonzero;stroke:none"
         id="path56" />
      <path
         d="m 1517.01,260.199 c 0,-19.179 -6.04,-32.301 -23.78,-42.238 -24.14,36.559 -27.7,42.238 -27.7,52.891 0,13.847 9.23,24.488 24.14,24.488 17.04,0 27.34,-14.899 27.34,-35.141 z m -17.4,-50.758 c 18.81,12.071 45.8,23.418 45.8,50.039 0,29.829 -25.91,44.379 -53.25,44.379 -30.89,0 -55.03,-18.808 -55.03,-44.73 0,-17.027 8.17,-28.039 28.05,-57.5 -19.88,-14.547 -53.6,-23.789 -53.6,-63.18 0,-36.57 24.49,-64.6092 62.12,-64.6092 28.76,0 43.66,15.6211 57.86,36.9102 l 10.3,-14.1992 c 2.13,-2.832 3.55,-5.3203 3.55,-6.7422 0,-2.8398 -1.07,-4.9766 -4.26,-5.3281 -8.53,-1.0508 -12.42,-2.1289 -12.42,-5.6719 0,-2.4883 1.41,-4.2695 4.6,-4.2695 4.98,0 13.14,1.4297 37.28,1.4297 15.62,0 25.56,-1.4297 32.66,-1.4297 4.25,0 6.03,1.4297 6.03,4.9804 0,3.1797 -2.84,4.6094 -6.38,4.961 -6.75,0.7109 -13.14,3.5586 -18.46,10.289 l -36.21,47.5825 c 22.71,41.527 26.27,52.886 38.34,56.437 8.86,2.492 13.48,2.133 13.48,6.031 0,2.489 -1.06,3.91 -3.9,3.91 -5.69,-0.011 -16.33,-1.429 -25.92,-1.429 -12.06,0 -18.1,1.418 -25.56,1.418 -4.26,0.011 -6.03,-1.41 -6.03,-4.258 0,-5.313 8.16,-1.77 18.46,-5.672 2.84,-1.07 4.61,-3.91 4.61,-6.398 0,-4.262 -3.19,-12.77 -8.51,-22.36 l -11.01,-20.242 z m 25.91,-89.453 c -5.67,-9.937 -18.09,-25.5661 -35.85,-25.5661 -24.84,0 -45.44,24.8481 -45.44,52.5391 0,20.937 8.17,35.5 26.99,46.148 l 54.3,-73.121"
         style="fill:#214597;fill-opacity:1;fill-rule:nonzero;stroke:none"
         id="path58" />
      <path
         d="m 1732.11,78.4492 c 0,3.9024 0.37,4.6211 1.43,4.6211 1.42,0 10.29,-9.2305 28.75,-9.2305 34.08,0 64.25,32.6482 64.25,87.6722 0,45.078 -22.72,80.59 -53.96,80.59 -21.65,0 -38.69,-22.731 -40.1,-22.731 -1.07,0 -1.43,0.371 -1.43,14.199 0,7.821 -0.35,8.532 -2.13,8.532 -3.19,0 -4.26,-3.204 -17.74,-9.942 -21.66,-11.012 -29.47,-9.238 -29.47,-14.551 0,-3.211 3.55,-3.211 8.17,-4.621 7.8,-2.129 13.13,-1.777 13.13,-12.066 V 19.8789 c 0,-9.93749 -7.1,-9.2305 -14.56,-10.64843 -4.26,-0.71094 -7.8,-0.35156 -7.8,-4.96094 0,-3.910155 3.9,-4.26953 8.52,-4.26953 10.29,0 20.58,1.41016 30.87,1.41016 20.24,0 27.34,-1.41016 35.86,-1.41016 4.61,0 6.04,1.78125 6.04,4.26953 0,2.48047 -1.43,3.53906 -8.17,4.25 -17.75,1.78127 -21.66,5.67967 -21.66,20.94137 z m 0,122.8318 c 0,10.989 11.72,23.059 25.92,23.059 21.65,0 35.85,-26.969 35.85,-71.692 0,-43.316 -14.2,-70.2964 -36.91,-70.2964 -16.33,0 -24.86,12.789 -24.86,36.9184 v 82.011"
         style="fill:#214597;fill-opacity:1;fill-rule:nonzero;stroke:none"
         id="path60" />
      <path
         d="m 1896.82,102.941 c 0,-12.7808 3.91,-18.4605 14.91,-19.8707 13.14,-1.7812 14.2,-2.5 14.2,-5.332 0,-1.418 -1.06,-3.1992 -3.9,-3.1992 -6.04,0 -17.4,1.4297 -38.34,1.4297 -18.46,0 -29.82,-1.4297 -36.21,-1.4297 -2.48,0 -4.61,0.7226 -4.61,2.8515 0,2.8282 1.77,3.8985 10.64,5.6797 11.01,2.1211 12.07,5.668 12.07,17.3907 v 101.168 c 0,8.16 -6.74,9.23 -12.42,9.941 -4.62,0.7 -8.16,1.418 -8.16,4.262 0,5.316 6.38,3.188 27.33,14.898 14.55,8.168 14.55,12.782 17.74,12.782 1.78,0 2.49,-2.84 2.49,-8.524 v -27.679 c 0,-1.071 0.36,-1.418 0.71,-1.418 1.42,0 16.33,36.211 40.47,36.211 12.78,0 22.01,-10.661 22.01,-22.731 0,-11.351 -6.39,-23.422 -17.4,-23.422 -8.52,0 -11.71,4.25 -13.48,10.641 -2.14,7.109 -0.71,13.5 -6.75,13.5 -12.07,0 -21.3,-21.301 -21.3,-46.16 v -70.989"
         style="fill:#214597;fill-opacity:1;fill-rule:nonzero;stroke:none"
         id="path62" />
      <path
         d="m 2076.44,164.719 c 7.8,0 10.64,2.48 10.64,14.551 0,30.878 -16.67,62.832 -53.6,62.832 -41.88,0 -67.44,-41.903 -67.44,-87.692 0,-54.66 28.75,-84.1287 64.6,-84.1287 39.77,0 56.44,33.0197 56.44,41.8987 0,2.832 -1.06,4.25 -3.9,4.25 -7.45,0 -5.32,-28.3909 -42.6,-28.3909 -26.97,0 -41.88,30.1719 -41.88,64.2419 0,11.36 1.41,12.438 7.45,12.438 z m -18.47,33.711 c 0,-20.59 -9.58,-25.2 -42.95,-25.2 -11.7,0 -14.91,1.782 -14.91,7.45 0,7.101 4.97,52.89 34.44,52.89 17.39,0 23.42,-20.218 23.42,-35.14"
         style="fill:#214597;fill-opacity:1;fill-rule:nonzero;stroke:none"
         id="path64" />
      <path
         d="m 2105.54,118.91 c 0,4.621 1.78,6.75 5.32,6.75 3.2,0 5.33,-3.191 9.95,-16.328 6.38,-18.8125 15.97,-30.5234 33,-30.5234 16.34,0 26.27,13.4805 26.27,30.8824 0,41.528 -75.25,39.75 -75.25,84.84 0,31.239 30.17,47.571 54.67,47.571 12.42,0 26.98,-2.493 32.65,-4.981 4.26,-1.769 4.62,-3.902 4.62,-25.199 0,-11.363 -1.06,-13.492 -6.39,-13.492 -9.94,0 -4.61,35.14 -36.57,35.14 -14.9,0 -24.13,-9.929 -24.13,-23.781 0,-37.269 75.26,-33 75.26,-86.617 0,-29.8126 -25.56,-52.8907 -62.48,-52.8907 -14.91,0 -36.92,5.6875 -36.92,12.0703 V 118.91"
         style="fill:#214597;fill-opacity:1;fill-rule:nonzero;stroke:none"
         id="path66" />
      <path
         d="m 2332.72,164.719 c 7.81,0 10.65,2.48 10.65,14.551 0,30.878 -16.69,62.832 -53.6,62.832 -41.88,0 -67.44,-41.903 -67.44,-87.692 0,-54.66 28.75,-84.1287 64.6,-84.1287 39.75,0 56.44,33.0197 56.44,41.8987 0,2.832 -1.06,4.25 -3.9,4.25 -7.45,0 -5.32,-28.3909 -42.6,-28.3909 -26.98,0 -41.88,30.1719 -41.88,64.2419 0,11.36 1.41,12.438 7.45,12.438 z m -18.46,33.711 c 0,-20.59 -9.58,-25.2 -42.95,-25.2 -11.72,0 -14.91,1.782 -14.91,7.45 0,7.101 4.97,52.89 34.43,52.89 17.4,0 23.43,-20.218 23.43,-35.14"
         style="fill:#214597;fill-opacity:1;fill-rule:nonzero;stroke:none"
         id="path68" />
      <path
         d="m 2454.83,195.59 c 0,20.59 -9.23,28.75 -22,28.75 -13.5,0 -24.5,-9.219 -30.53,-26.621 V 99.0313 c 0,-10.9922 4.26,-13.8399 11.71,-15.961 7.1,-2.1289 8.16,-3.1992 8.16,-4.9805 0,-2.121 -1.06,-3.5507 -4.25,-3.5507 -6.75,0 -16.33,1.4297 -30.88,1.4297 -11.37,0 -22.37,-1.4297 -28.05,-1.4297 -3.91,0 -5.68,0.7226 -5.68,3.9101 0,2.8399 2.84,4.25 7.46,5.3321 9.58,2.1289 12.42,4.6093 12.42,16.6797 v 99.391 c 0,10.648 -1.78,11.718 -7.45,13.5 -4.97,1.398 -10.66,0 -10.66,3.89 0,4.977 7.1,4.27 21.65,12.078 20.24,11 18.11,14.91 22.73,14.91 2.13,0 2.84,-1.429 2.84,-5.691 v -24.488 h 0.7 c 11.72,14.199 21.3,28.051 41.9,28.051 22,0 39.04,-12.071 39.04,-44.731 V 95.8516 c 0,-7.1133 3.19,-11.3711 11.72,-12.7813 7.1,-1.4219 8.16,-2.8515 8.16,-5.6797 0,-1.4218 -1.77,-2.8515 -4.62,-2.8515 -4.25,0 -12.42,1.4297 -30.52,1.4297 -8.53,0 -17.4,-1.4297 -25.92,-1.4297 -4.26,0 -6.39,1.0703 -6.39,3.5507 0,2.8516 1.07,3.5586 6.04,4.9805 10.65,3.1914 12.42,4.9688 12.42,12.7813 V 195.59"
         style="fill:#214597;fill-opacity:1;fill-rule:nonzero;stroke:none"
         id="path70" />
      <path
         d="m 2556.35,236.41 h 22.72 c 3.55,0 4.26,-1.422 4.26,-6.031 0,-4.609 -0.71,-6.039 -4.26,-6.039 h -20.95 c -1.42,0 -1.77,-1.418 -1.77,-2.121 V 113.23 c 0,-15.6011 3.55,-21.6402 10.65,-21.6402 9.94,0 13.13,17.0312 18.1,17.0312 2.13,0 3.2,-1.41 3.2,-4.609 0,-5.3323 -11.01,-33.7307 -34.08,-33.7307 -20.94,0 -26.98,19.1796 -26.98,42.5977 V 218.66 c 0,4.262 -1.06,5.68 -3.91,5.68 h -9.58 c -3.19,0 -3.55,1.07 -3.55,3.211 0,4.258 6.4,5.668 19.17,19.508 18.11,19.531 17.04,34.793 23.43,34.793 1.78,0 3.55,-2.133 3.55,-5.321 V 236.41"
         style="fill:#214597;fill-opacity:1;fill-rule:nonzero;stroke:none"
         id="path72" />
      <path
         d="m 2700.46,217.961 c 0,19.16 -7.45,24.141 -35.14,24.141 -42.59,0 -70.99,-38.34 -70.99,-52.192 0,-7.101 4.26,-11.719 12.77,-11.719 13.14,0 20.24,9.59 22.02,25.219 2.13,18.809 13.83,30.16 27.33,30.16 9.58,0 14.9,-6.379 14.9,-15.609 V 187.43 c 0,-22.36 -74.54,-47.211 -74.54,-86.258 0,-20.9532 11.36,-30.8907 29.82,-30.8907 27.69,0 38.34,27.6992 42.59,27.6992 4.27,0 6.75,-26.2696 29.47,-26.2696 15.26,0 30.89,16.6797 30.89,28.3981 0,2.832 -1.07,4.25 -3.2,4.25 -5.68,0 -6.75,-11.3473 -14.2,-11.3473 -5.33,0 -11.72,4.25 -11.72,18.4493 z m -29.11,-80.231 c 0,-31.941 -9.23,-44.7183 -25.91,-44.7183 -9.94,0 -15.97,8.5083 -15.97,19.5193 1.06,24.84 33.72,52.891 38.34,52.891 2.48,0 3.54,-0.703 3.54,-4.973 V 137.73"
         style="fill:#214597;fill-opacity:1;fill-rule:nonzero;stroke:none"
         id="path74" />
      <path
         d="m 2773.23,236.41 h 22.72 c 3.55,0 4.26,-1.422 4.26,-6.031 0,-4.609 -0.71,-6.039 -4.26,-6.039 H 2775 c -1.41,0 -1.77,-1.418 -1.77,-2.121 V 113.23 c 0,-15.6011 3.55,-21.6402 10.65,-21.6402 9.94,0 13.14,17.0312 18.11,17.0312 2.13,0 3.19,-1.41 3.19,-4.609 0,-5.3323 -11.01,-33.7307 -34.08,-33.7307 -20.94,0 -26.97,19.1796 -26.97,42.5977 V 218.66 c 0,4.262 -1.07,5.68 -3.91,5.68 h -9.59 c -3.19,0 -3.55,1.07 -3.55,3.211 0,4.258 6.39,5.668 19.17,19.508 18.11,19.531 17.05,34.793 23.43,34.793 1.78,0 3.55,-2.133 3.55,-5.321 V 236.41"
         style="fill:#214597;fill-opacity:1;fill-rule:nonzero;stroke:none"
         id="path76" />
      <path
         d="m 2843.16,301.73 c 9.94,0 16.33,-9.23 16.33,-19.878 0,-10.653 -6.39,-19.883 -16.33,-19.883 -9.94,0 -16.33,9.23 -16.33,19.883 0,10.648 6.39,19.878 16.33,19.878 z M 2857,99.0313 c 0,-10.9922 3.2,-14.9024 13.13,-15.961 6.04,-0.7187 8.17,-2.5 8.17,-4.2617 0,-2.1367 -1.07,-4.2695 -6.04,-4.2695 -6.74,0 -15.97,1.4297 -30.53,1.4297 -15.61,0 -26.62,-1.4297 -32.29,-1.4297 -3.91,0 -5.69,0.7226 -5.69,3.9101 0,2.8399 3.55,4.25 7.46,5.3321 13.84,3.8984 16.69,4.6093 16.69,16.6797 V 203.41 c 0,9.578 -5.34,9.942 -12.43,11.34 -3.9,0.73 -6.74,1.082 -6.74,4.621 0,3.91 2.48,4.27 6.74,5.328 27.69,7.11 35.49,17.403 38.33,17.403 2.13,0 3.2,-1.082 3.2,-4.981 V 99.0313"
         style="fill:#214597;fill-opacity:1;fill-rule:nonzero;stroke:none"
         id="path78" />
      <path
         d="m 3002.9,164.719 c 7.8,0 10.64,2.48 10.64,14.551 0,30.878 -16.68,62.832 -53.6,62.832 -41.89,0 -67.44,-41.903 -67.44,-87.692 0,-54.66 28.75,-84.1287 64.59,-84.1287 39.77,0 56.45,33.0197 56.45,41.8987 0,2.832 -1.06,4.25 -3.91,4.25 -7.45,0 -5.32,-28.3909 -42.59,-28.3909 -26.98,0 -41.89,30.1719 -41.89,64.2419 0,11.36 1.42,12.438 7.45,12.438 z m -18.47,33.711 c 0,-20.59 -9.58,-25.2 -42.95,-25.2 -11.71,0 -14.91,1.782 -14.91,7.45 0,7.101 4.97,52.89 34.43,52.89 17.39,0 23.43,-20.218 23.43,-35.14"
         style="fill:#214597;fill-opacity:1;fill-rule:nonzero;stroke:none"
         id="path80" />
    </g>
  </g>
</svg>
