<svg width="20" height="22" viewBox="0 0 20 22" fill="none" xmlns="http://www.w3.org/2000/svg">
<path d="M19 14C18.7348 14 18.4804 14.1054 18.2929 14.2929C18.1054 14.4804 18 14.7348 18 15V20H2V15C2 14.7348 1.89464 14.4804 1.70711 14.2929C1.51957 14.1054 1.26522 14 1 14C0.734784 14 0.48043 14.1054 0.292893 14.2929C0.105357 14.4804 0 14.7348 0 15V20.14C0.0090275 20.3935 0.0679399 20.6427 0.173368 20.8735C0.278796 21.1042 0.428671 21.3118 0.614423 21.4846C0.800174 21.6573 1.01816 21.7918 1.25591 21.8802C1.49366 21.9687 1.74651 22.0094 2 22H18C18.2535 22.0094 18.5063 21.9687 18.7441 21.8802C18.9818 21.7918 19.1998 21.6573 19.3856 21.4846C19.5713 21.3118 19.7212 21.1042 19.8266 20.8735C19.9321 20.6427 19.991 20.3935 20 20.14V15C20 14.7348 19.8946 14.4804 19.7071 14.2929C19.5196 14.1054 19.2652 14 19 14Z" fill="white"/>
<path d="M9.27009 15.68C9.34843 15.7512 9.43586 15.8117 9.53009 15.86C9.6727 15.945 9.83423 15.9931 10.0001 16C10.1308 15.9984 10.2599 15.9712 10.3801 15.92L10.5001 15.85C10.5638 15.8158 10.6241 15.7757 10.6801 15.73L15.6801 10.35C15.77 10.2541 15.8402 10.1415 15.8867 10.0185C15.9331 9.89551 15.9548 9.76458 15.9506 9.63318C15.9465 9.50179 15.9164 9.3725 15.8623 9.25271C15.8082 9.13291 15.731 9.02496 15.6351 8.935C15.5392 8.84505 15.4266 8.77485 15.3036 8.72843C15.1806 8.68201 15.0497 8.66026 14.9183 8.66444C14.7869 8.66862 14.6576 8.69864 14.5378 8.75278C14.418 8.80693 14.31 8.88413 14.2201 8.98L11.0001 12.45V1C11.0001 0.734784 10.8947 0.48043 10.7072 0.292893C10.5197 0.105357 10.2653 0 10.0001 0C9.73487 0 9.48052 0.105357 9.29298 0.292893C9.10544 0.48043 9.00009 0.734784 9.00009 1V12.45L5.73008 8.93C5.64013 8.83414 5.53217 8.75693 5.41238 8.70278C5.29258 8.64864 5.1633 8.61862 5.0319 8.61444C4.90051 8.61026 4.76958 8.63201 4.64659 8.67843C4.52359 8.72485 4.41095 8.79504 4.31508 8.885C4.21922 8.97496 4.14201 9.08291 4.08787 9.20271C4.03373 9.3225 4.00371 9.45179 3.99953 9.58318C3.99535 9.71458 4.01709 9.84551 4.06352 9.9685C4.10994 10.0915 4.18013 10.2041 4.27009 10.3L9.27009 15.68Z" fill="white"/>
</svg>
