<svg width="42" height="28" viewBox="0 0 42 28" fill="none" xmlns="http://www.w3.org/2000/svg">
<path d="M38.8808 1H3.28689C2.02388 1 1 2.02899 1 3.29832V24.7017C1 25.971 2.02388 27 3.28689 27H38.8808C40.1438 27 41.1677 25.971 41.1677 24.7017V3.29832C41.1677 2.02899 40.1438 1 38.8808 1Z" fill="#F9F9F9" stroke="#E3E9ED" stroke-width="0.4" stroke-linecap="round" stroke-linejoin="round"/>
<path d="M3.49243 11.2413H5.32274C5.73543 11.2413 6.05019 11.2789 6.26703 11.3541C6.5579 11.4564 6.8068 11.6388 7.01431 11.8999C7.22182 12.1609 7.37979 12.4811 7.48821 12.8591C7.59604 13.2378 7.65025 13.7043 7.65025 14.2591C7.65025 14.7464 7.59954 15.1669 7.4987 15.5198C7.37396 15.9514 7.19734 16.2995 6.9671 16.5661C6.79339 16.768 6.55907 16.926 6.26354 17.0395C6.04203 17.123 5.74708 17.1648 5.37753 17.1648H3.49243V11.2413ZM4.49385 12.2438V16.1665H5.24172C5.52151 16.1665 5.72319 16.1477 5.84734 16.1094C6.00939 16.0607 6.14463 15.9792 6.2513 15.863C6.35855 15.7474 6.44598 15.5567 6.5136 15.2921C6.58122 15.0262 6.61502 14.6649 6.61502 14.2062C6.61502 13.7488 6.58122 13.3973 6.5136 13.1522C6.44598 12.9072 6.35156 12.7158 6.22973 12.5786C6.09979 12.4364 5.93938 12.34 5.76632 12.3002C5.62643 12.2619 5.35246 12.2431 4.94443 12.2431L4.49385 12.2438ZM8.47273 17.1641V11.2413H9.47357V17.1641H8.47273ZM10.1707 15.2372L11.1453 15.1237C11.2036 15.5142 11.3225 15.801 11.5021 15.9841C11.681 16.1679 11.9229 16.2591 12.2278 16.2591C12.5501 16.2591 12.7932 16.1777 12.9564 16.0148C13.1202 15.8519 13.2018 15.6611 13.2018 15.4432C13.2047 15.313 13.1681 15.1859 13.0986 15.0854C13.0298 14.9872 12.9098 14.9016 12.7384 14.8292C12.6212 14.7805 12.3537 14.6942 11.9369 14.5703C11.4001 14.4115 11.0235 14.2159 10.8067 13.9848C10.5024 13.6583 10.3502 13.2608 10.3502 12.7923C10.3502 12.4909 10.4219 12.2089 10.5648 11.9465C10.7081 11.6834 10.9145 11.4836 11.1838 11.3464C11.4537 11.2086 11.7784 11.1404 12.1601 11.1404C12.7827 11.1404 13.2508 11.3033 13.5655 11.6291C13.8803 11.9549 14.0452 12.3899 14.061 12.9343L13.0596 12.9865C13.017 12.6823 12.9255 12.4631 12.7839 12.3301C12.6434 12.1964 12.4318 12.1303 12.1497 12.1303C11.8588 12.1303 11.6309 12.2013 11.4665 12.344C11.4163 12.3845 11.3755 12.4393 11.3477 12.5035C11.3198 12.5678 11.306 12.6393 11.3074 12.7116C11.3074 12.8522 11.3569 12.9719 11.456 13.0715C11.5825 13.1982 11.8891 13.3297 12.377 13.4676C12.8637 13.6047 13.2239 13.7467 13.4571 13.8936C13.6903 14.0398 13.8733 14.2417 14.005 14.4958C14.1373 14.7499 14.2032 15.0645 14.2032 15.439C14.2032 15.7781 14.1245 16.0962 13.9666 16.3928C13.8086 16.6886 13.5853 16.9093 13.2962 17.0534C13.0077 17.1975 12.648 17.2692 12.2179 17.2692C11.5907 17.2692 11.1092 17.0959 10.7729 16.7499C10.4371 16.4039 10.2366 15.8999 10.1707 15.2372ZM18.2258 14.9865L19.1963 15.3541C19.0477 16.0008 18.8 16.4805 18.4543 16.7951C18.1081 17.1084 17.6686 17.265 17.1364 17.265C16.4777 17.265 15.9368 16.9963 15.5124 16.4589C15.0886 15.9222 14.877 15.187 14.877 14.2549C14.877 13.2692 15.0898 12.5041 15.5159 11.9583C15.942 11.4133 16.5028 11.1404 17.197 11.1404C17.8038 11.1404 18.2969 11.3541 18.6758 11.7829C18.9014 12.0356 19.0704 12.3997 19.1829 12.8738L18.192 13.1564C18.1337 12.8494 18.0113 12.6065 17.8248 12.4289C17.6382 12.2514 17.4127 12.1623 17.1463 12.1623C16.779 12.1623 16.4806 12.3196 16.2515 12.6357C16.023 12.9503 15.9082 13.4606 15.9082 14.1665C15.9082 14.9149 16.0213 15.4488 16.2463 15.7662C16.4724 16.0844 16.7651 16.2431 17.1265 16.2431C17.3923 16.2431 17.6213 16.1421 17.8131 15.9403C18.0049 15.7384 18.1425 15.4202 18.2258 14.9865ZM19.8562 14.2389C19.8562 13.636 19.932 13.1293 20.0835 12.7199C20.196 12.4185 20.3499 12.1477 20.5446 11.9075C20.7399 11.668 20.9538 11.4898 21.1858 11.3743C21.4947 11.2183 21.8509 11.1404 22.2548 11.1404C22.9858 11.1404 23.5704 11.4112 24.0093 11.9521C24.4477 12.4937 24.6669 13.2469 24.6669 14.2111C24.6669 15.1669 24.4494 15.9152 24.014 16.4554C23.5786 16.9949 22.9968 17.265 22.2682 17.265C21.5309 17.265 20.945 16.9963 20.509 16.4589C20.0742 15.9222 19.8562 15.1815 19.8562 14.2389ZM20.8879 14.1985C20.8879 14.8696 21.0179 15.3778 21.2773 15.7238C21.5367 16.0698 21.866 16.2431 22.2647 16.2431C22.664 16.2431 22.9916 16.0711 23.2475 15.7279C23.504 15.3847 23.6322 14.8696 23.6322 14.1825C23.6322 13.5038 23.5069 12.9977 23.258 12.6635C23.0085 12.3294 22.678 12.1623 22.2647 12.1623C21.852 12.1623 21.5198 12.3315 21.2668 12.6698C21.0144 13.0074 20.8879 13.517 20.8879 14.1985ZM26.7105 17.1641L24.9373 11.2413H26.0233L27.2788 15.6249L28.493 11.2413H29.5556L27.7795 17.1641H26.7105ZM30.0732 17.1641V11.2413H33.7502V12.2438H31.0747V13.556H33.5642V14.5542H31.0741V16.1665H33.8452V17.1641H30.0732ZM34.7044 17.1641V11.2413H36.8122C37.342 11.2413 37.7273 11.2942 37.9675 11.4014C38.2076 11.5072 38.4 11.6966 38.5445 11.9688C38.6885 12.2403 38.7602 12.5515 38.7602 12.9016C38.7602 13.3464 38.6512 13.7133 38.4326 14.0029C38.2134 14.2925 37.8864 14.4749 37.4516 14.5501C37.6679 14.7011 37.8468 14.8668 37.9879 15.0471C38.1283 15.2281 38.3184 15.5483 38.5574 16.0085L39.1636 17.1641H37.9657L37.2418 15.8755C36.9847 15.4147 36.8087 15.1244 36.7136 15.0053C36.6315 14.8953 36.5283 14.8105 36.4129 14.7582C36.3068 14.7137 36.1389 14.6914 35.9087 14.6914H35.7058V17.1641H34.7044ZM35.7058 13.746H36.4461C36.927 13.746 37.2272 13.7217 37.3467 13.6736C37.4609 13.6297 37.5595 13.5415 37.627 13.423C37.6947 13.3047 37.7285 13.1564 37.7285 12.9782C37.7285 12.7791 37.6842 12.6183 37.595 12.4958C37.5058 12.3732 37.3805 12.296 37.2179 12.2633C37.1362 12.2493 36.8932 12.2431 36.4869 12.2431H35.7058V13.746Z" fill="#1A1A1A"/>
<path fill-rule="evenodd" clip-rule="evenodd" d="M25.5966 14.2701C25.6026 14.6922 25.525 15.1112 25.3684 15.5029C25.2118 15.8945 24.9793 16.251 24.6844 16.5516C24.3895 16.8522 24.0382 17.0909 23.6507 17.2538C23.2632 17.4167 22.8474 17.5006 22.4274 17.5006C22.0074 17.5006 21.5916 17.4167 21.2042 17.2538C20.8167 17.0909 20.4653 16.8522 20.1704 16.5516C19.8756 16.251 19.6431 15.8945 19.4865 15.5029C19.3299 15.1112 19.2523 14.6922 19.2583 14.2701C19.27 13.4332 19.6091 12.6346 20.2022 12.047C20.7952 11.4593 21.5946 11.1299 22.4274 11.1299C23.2603 11.1299 24.0596 11.4593 24.6527 12.047C25.2457 12.6346 25.5848 13.4332 25.5966 14.2701Z" fill="#FC8100"/>
<path d="M40.9141 17.4099L11.9623 26.2098L10.9501 26.7488H38.7664C40.0334 26.7488 40.9141 25.9122 40.9141 24.6395V17.4099Z" fill="#FC8100"/>
</svg>
