<svg width="36" height="26" viewBox="0 0 36 26" fill="none" xmlns="http://www.w3.org/2000/svg">
<path d="M2.18884 0H32.8331C34.0414 0 35.022 1.01278 35.022 2.26186V23.7393C35.022 24.9872 34.0414 26 32.8331 26H2.18884C0.979488 26.0001 0 24.9872 0 23.7394V2.26186C0 1.01278 0.980568 0 2.18884 0Z" fill="#006FCF"/>
<path d="M5.6473 9.04321L2.18884 16.9481H6.3291L6.84237 15.6877H8.01559L8.52886 16.9481H13.0861V15.9861L13.4922 16.9481H15.8496L16.2557 15.9658V16.9481H25.7335L26.886 15.7204L27.9651 16.9481L32.8331 16.9582L29.3637 13.0177L32.8331 9.04321H28.0406L26.9187 10.2482L25.8736 9.04321H15.5629L14.6776 11.0835L13.7714 9.04321H9.63979V9.97243L9.18018 9.04321H5.6473ZM6.44841 10.1657H8.46657L10.7606 15.526V10.1657H12.9714L14.7432 14.009L16.3762 10.1657H18.5759V15.838H17.2374L17.2265 11.3932L15.2751 15.838H14.0777L12.1154 11.3932V15.838H9.36179L8.83976 14.5663H6.01941L5.49845 15.8369H4.0231L6.44841 10.1657ZM19.8005 10.1657H25.2432L26.9078 12.0229L28.6261 10.1657H30.2908L27.7615 13.0166L30.2908 15.8346H28.5506L26.886 13.9559L25.1589 15.8346H19.8005V10.1657ZM7.43018 11.1254L6.50099 13.3908H8.3583L7.43018 11.1254ZM21.1446 11.3402V12.3756H24.1138V13.5297H21.1446V14.6602H24.4749L26.0224 12.9951L24.5406 11.3392H21.1446V11.3402Z" fill="white"/>
</svg>
