<svg width="16" height="23" viewBox="0 0 16 23" fill="none" xmlns="http://www.w3.org/2000/svg">
<path d="M12.1129 10.4455C12.9645 9.5864 13.5428 8.49455 13.7752 7.30742C14.0075 6.12029 13.8835 4.89095 13.4186 3.77419C12.9537 2.65742 12.1688 1.70317 11.1627 1.03157C10.1566 0.359968 8.97431 0.00104789 7.76465 0H1.226C0.900843 0 0.589005 0.129167 0.359086 0.359086C0.129167 0.589006 0 0.900843 0 1.226V20.842C0 21.1671 0.129167 21.479 0.359086 21.7089C0.589005 21.9388 0.900843 22.068 1.226 22.068H9.39932C10.7813 22.066 12.1222 21.5972 13.2042 20.7374C14.2863 19.8777 15.0461 18.6775 15.3603 17.3317C15.6745 15.9859 15.5247 14.5733 14.9352 13.3233C14.3457 12.0733 13.3512 11.0592 12.1129 10.4455ZM2.452 2.452H7.76465C8.74012 2.452 9.67563 2.8395 10.3654 3.52925C11.0551 4.21901 11.4426 5.15452 11.4426 6.12999C11.4426 7.10545 11.0551 8.04097 10.3654 8.73072C9.67563 9.42048 8.74012 9.80798 7.76465 9.80798H2.452V2.452ZM9.39932 19.616H2.452V12.26H9.39932C10.3748 12.26 11.3103 12.6475 12 13.3372C12.6898 14.027 13.0773 14.9625 13.0773 15.938C13.0773 16.9134 12.6898 17.8489 12 18.5387C11.3103 19.2285 10.3748 19.616 9.39932 19.616Z" fill="#4CCE5F"/>
</svg>
