<svg width="28" height="28" viewBox="0 0 28 28" fill="none" xmlns="http://www.w3.org/2000/svg">
<path d="M14 0C6.26809 0 0 6.26809 0 14C0 21.7317 6.26809 27.9997 14 27.9997C21.7319 27.9997 28 21.7317 28 14C28 6.26809 21.7319 0 14 0ZM13.9824 6.32157C14.296 5.98109 14.6782 5.80805 15.1178 5.80805C15.4742 5.80805 15.7878 5.93629 16.0233 6.17905C16.2602 6.42041 16.3803 6.72925 16.3803 7.09605C16.3803 7.55581 16.2196 7.96461 15.9029 8.31097C15.5775 8.66825 15.197 8.84997 14.7731 8.84997C14.4231 8.84997 14.1131 8.71865 13.8768 8.47029C13.6427 8.22697 13.5232 7.90889 13.5232 7.52641C13.5232 7.05797 13.6777 6.65253 13.9824 6.32157ZM16.3145 19.5115C15.1539 20.603 14.3254 21.2834 13.7827 21.5925C13.2037 21.924 12.7266 22.0859 12.3248 22.0859C11.9255 22.0859 11.5999 21.9529 11.3563 21.6911C11.1202 21.4379 11.0007 21.0961 11.0007 20.6761C11.0007 19.6025 11.6088 17.1094 12.8607 13.0542C12.882 12.9856 12.8985 12.9203 12.9097 12.8596C12.8629 12.8797 12.8089 12.9083 12.7462 12.9472C12.6437 13.0119 12.3315 13.2569 11.4179 14.1495C11.2784 14.2859 11.0603 14.2985 10.906 14.1789L10.3656 13.7609C10.2794 13.6945 10.2251 13.5949 10.2155 13.4862C10.206 13.3779 10.2424 13.2703 10.3155 13.1897C11.1575 12.2626 11.9434 11.5895 12.6518 11.1891C13.3933 10.7713 14.0202 10.5681 14.5676 10.5681C14.9215 10.5681 15.2074 10.656 15.4179 10.8301C15.647 11.0211 15.7679 11.2863 15.7679 11.5973C15.7679 11.8015 15.6711 12.3332 14.9559 14.7314C13.9345 18.158 13.6903 19.4018 13.6738 19.8321C13.867 19.7179 14.3243 19.3931 15.3003 18.4758C15.4524 18.3319 15.6909 18.3347 15.8402 18.4803L16.3193 18.9473C16.3957 19.0218 16.4385 19.124 16.4374 19.2307C16.4363 19.3374 16.3921 19.4385 16.3145 19.5115Z" fill="black"/>
</svg>
