<svg width="21" height="21" viewBox="0 0 21 21" fill="none" xmlns="http://www.w3.org/2000/svg">
<path d="M9.06147 11.593C10.68 13.0348 13.0184 15.2141 14.5143 13.623L15.1597 12.9193C15.3104 12.7549 15.4928 12.6228 15.6959 12.5308C15.8991 12.4389 16.1187 12.389 16.3416 12.3842C16.5646 12.3794 16.7862 12.4197 16.9931 12.5028C17.2 12.5859 17.3879 12.7101 17.5456 12.8677L20.163 15.4851C21.6386 17.1747 19.4398 18.5053 18.1651 19.5998C14.5582 22.4031 9.59094 19.1652 5.45668 15.1978C1.48684 11.058 -1.74726 6.10295 1.05457 2.48938C2.14515 1.21235 3.48193 -0.983966 5.16938 0.491425L7.78674 3.10881C7.94441 3.26648 8.06853 3.45443 8.15164 3.66134C8.23474 3.86826 8.2751 4.08985 8.27028 4.31278C8.26547 4.5357 8.21558 4.75535 8.12362 4.95848C8.03166 5.16162 7.89953 5.34403 7.7352 5.49475L7.03155 6.14005C5.43932 7.63106 7.62118 9.97816 9.06147 11.593Z" fill="black"/>
</svg>
