<?xml version="1.0" encoding="UTF-8" standalone="no"?>
<!-- Created with Inkscape (http://www.inkscape.org/) -->

<svg
   version="1.1"
   id="svg2"
   width="1612"
   height="1612"
   viewBox="0 0 1612 1612"
   sodipodi:docname="Logo_170677008378.eps"
   xmlns:inkscape="http://www.inkscape.org/namespaces/inkscape"
   xmlns:sodipodi="http://sodipodi.sourceforge.net/DTD/sodipodi-0.dtd"
   xmlns="http://www.w3.org/2000/svg"
   xmlns:svg="http://www.w3.org/2000/svg">
  <defs
     id="defs6">
    <clipPath
       clipPathUnits="userSpaceOnUse"
       id="clipPath44">
      <path
         d="m 6622.79,6270.3 c 0,0 473.45,707.76 1004.56,449.09 531.1,-258.65 688.12,-349.51 889.22,-310.45 0,0 -382.92,-401.75 -1060.87,-75.33 -244.82,458.25 -740.72,37.67 -832.91,-63.31 z"
         id="path42" />
    </clipPath>
    <linearGradient
       x1="0"
       y1="0"
       x2="1"
       y2="0"
       gradientUnits="userSpaceOnUse"
       gradientTransform="matrix(1893.78,0,0,-1893.78,6622.79,6491.02)"
       spreadMethod="pad"
       id="linearGradient50">
      <stop
         style="stop-opacity:1;stop-color:#ec1d27"
         offset="0"
         id="stop46" />
      <stop
         style="stop-opacity:1;stop-color:#be1c2d"
         offset="1"
         id="stop48" />
    </linearGradient>
    <clipPath
       clipPathUnits="userSpaceOnUse"
       id="clipPath60">
      <path
         d="m 5200.56,6270.3 c 0,0 -473.45,707.76 -1004.56,449.09 -531.11,-258.65 -688.13,-349.51 -889.22,-310.45 0,0 382.91,-401.75 1060.87,-75.33 244.81,458.25 740.72,37.67 832.91,-63.31 z"
         id="path58" />
    </clipPath>
    <linearGradient
       x1="0"
       y1="0"
       x2="1"
       y2="0"
       gradientUnits="userSpaceOnUse"
       gradientTransform="matrix(1893.78,0,0,-1893.78,3306.78,6491.02)"
       spreadMethod="pad"
       id="linearGradient66">
      <stop
         style="stop-opacity:1;stop-color:#ec1d27"
         offset="0"
         id="stop62" />
      <stop
         style="stop-opacity:1;stop-color:#be1c2d"
         offset="1"
         id="stop64" />
    </linearGradient>
    <clipPath
       clipPathUnits="userSpaceOnUse"
       id="clipPath76">
      <path
         d="m 7932.78,7720.9 c -188.32,-652.84 -548.61,-830.17 -512.97,-823.79 2132.52,202.34 1661.72,1966.27 1661.72,1966.27 0,0 -138.22,-822.84 -1148.75,-1142.48 z"
         id="path74" />
    </clipPath>
    <linearGradient
       x1="0"
       y1="0"
       x2="1"
       y2="0"
       gradientUnits="userSpaceOnUse"
       gradientTransform="matrix(1708.35,0,0,-1708.35,7417.35,7880.16)"
       spreadMethod="pad"
       id="linearGradient82">
      <stop
         style="stop-opacity:1;stop-color:#ec1d27"
         offset="0"
         id="stop78" />
      <stop
         style="stop-opacity:1;stop-color:#be1c2d"
         offset="1"
         id="stop80" />
    </linearGradient>
    <clipPath
       clipPathUnits="userSpaceOnUse"
       id="clipPath92">
      <path
         d="m 3890.57,7720.9 c 188.32,-652.84 548.6,-830.17 512.97,-823.79 -2132.52,202.34 -1661.72,1966.27 -1661.72,1966.27 0,0 138.22,-822.84 1148.75,-1142.48 z"
         id="path90" />
    </clipPath>
    <linearGradient
       x1="0"
       y1="0"
       x2="1"
       y2="0"
       gradientUnits="userSpaceOnUse"
       gradientTransform="matrix(1708.35,0,0,-1708.35,2697.65,7880.16)"
       spreadMethod="pad"
       id="linearGradient98">
      <stop
         style="stop-opacity:1;stop-color:#ec1d27"
         offset="0"
         id="stop94" />
      <stop
         style="stop-opacity:1;stop-color:#be1c2d"
         offset="1"
         id="stop96" />
    </linearGradient>
    <clipPath
       clipPathUnits="userSpaceOnUse"
       id="clipPath108">
      <path
         d="m 8350.09,6978.22 c -167.71,-78.58 -357.11,-138.74 -567.62,-180.38 841.04,-525.55 1531.71,138.4 1531.71,138.4 -283.19,-198.03 -812.67,-30.73 -964.09,41.98 z"
         id="path106" />
    </clipPath>
    <linearGradient
       x1="0"
       y1="0"
       x2="1"
       y2="0"
       gradientUnits="userSpaceOnUse"
       gradientTransform="matrix(1531.72,0,0,-1531.72,7782.47,6786.83)"
       spreadMethod="pad"
       id="linearGradient114">
      <stop
         style="stop-opacity:1;stop-color:#ec1d27"
         offset="0"
         id="stop110" />
      <stop
         style="stop-opacity:1;stop-color:#be1c2d"
         offset="1"
         id="stop112" />
    </linearGradient>
    <clipPath
       clipPathUnits="userSpaceOnUse"
       id="clipPath124">
      <path
         d="m 3473.26,6978.22 c 167.71,-78.58 357.11,-138.74 567.62,-180.38 -841.04,-525.55 -1418.33,138.4 -1418.33,138.4 283.19,-198.03 699.29,-30.73 850.71,41.98 z"
         id="path122" />
    </clipPath>
    <linearGradient
       x1="0"
       y1="0"
       x2="1"
       y2="0"
       gradientUnits="userSpaceOnUse"
       gradientTransform="matrix(1418.33,0,0,-1418.33,2622.55,6786.83)"
       spreadMethod="pad"
       id="linearGradient130">
      <stop
         style="stop-opacity:1;stop-color:#ec1d27"
         offset="0"
         id="stop126" />
      <stop
         style="stop-opacity:1;stop-color:#be1c2d"
         offset="1"
         id="stop128" />
    </linearGradient>
    <clipPath
       clipPathUnits="userSpaceOnUse"
       id="clipPath140">
      <path
         d="m 7838.62,8191.7 c 0,0 8.31,-907.56 -861.44,-1419.63 -869.72,-512.07 -800.83,-1602.05 -841.52,-1739.6 0,0 -55.89,1721.77 742.02,2171.5 0,0 807.14,443.18 960.94,987.73 z"
         id="path138" />
    </clipPath>
    <linearGradient
       x1="0"
       y1="0"
       x2="1"
       y2="0"
       gradientUnits="userSpaceOnUse"
       gradientTransform="matrix(1703.8,0,0,-1703.8,6134.82,6612.09)"
       spreadMethod="pad"
       id="linearGradient146">
      <stop
         style="stop-opacity:1;stop-color:#ec1d27"
         offset="0"
         id="stop142" />
      <stop
         style="stop-opacity:1;stop-color:#be1c2d"
         offset="1"
         id="stop144" />
    </linearGradient>
    <clipPath
       clipPathUnits="userSpaceOnUse"
       id="clipPath156">
      <path
         d="m 3984.73,8191.7 c 0,0 -8.31,-907.56 861.44,-1419.63 869.72,-512.07 800.82,-1602.05 841.52,-1739.6 0,0 55.88,1721.77 -742.02,2171.5 0,0 -807.15,443.18 -960.94,987.73 z"
         id="path154" />
    </clipPath>
    <linearGradient
       x1="0"
       y1="0"
       x2="1"
       y2="0"
       gradientUnits="userSpaceOnUse"
       gradientTransform="matrix(1703.8,0,0,-1703.8,3984.73,6612.09)"
       spreadMethod="pad"
       id="linearGradient162">
      <stop
         style="stop-opacity:1;stop-color:#ec1d27"
         offset="0"
         id="stop158" />
      <stop
         style="stop-opacity:1;stop-color:#be1c2d"
         offset="1"
         id="stop160" />
    </linearGradient>
    <clipPath
       clipPathUnits="userSpaceOnUse"
       id="clipPath172">
      <path
         d="m 8990.21,7499.28 c -118.38,-167.59 -270.52,-308.03 -454.97,-421.44 172.18,-39.86 886.27,-133.82 1104.3,654.34 -252.48,-310.5 -561.31,-263.86 -649.33,-232.9 z"
         id="path170" />
    </clipPath>
    <linearGradient
       x1="0"
       y1="0"
       x2="1"
       y2="0"
       gradientUnits="userSpaceOnUse"
       gradientTransform="matrix(1104.31,0,0,-1104.31,8535.24,7392.17)"
       spreadMethod="pad"
       id="linearGradient178">
      <stop
         style="stop-opacity:1;stop-color:#ec1d27"
         offset="0"
         id="stop174" />
      <stop
         style="stop-opacity:1;stop-color:#be1c2d"
         offset="1"
         id="stop176" />
    </linearGradient>
    <clipPath
       clipPathUnits="userSpaceOnUse"
       id="clipPath188">
      <path
         d="m 2833.13,7499.28 c 118.38,-167.59 270.53,-308.03 454.98,-421.44 -172.19,-39.86 -823.11,-133.82 -1041.14,654.34 252.48,-310.5 498.15,-263.86 586.16,-232.9 z"
         id="path186" />
    </clipPath>
    <linearGradient
       x1="0"
       y1="0"
       x2="1"
       y2="0"
       gradientUnits="userSpaceOnUse"
       gradientTransform="matrix(1041.14,0,0,-1041.14,2246.97,7392.17)"
       spreadMethod="pad"
       id="linearGradient194">
      <stop
         style="stop-opacity:1;stop-color:#ec1d27"
         offset="0"
         id="stop190" />
      <stop
         style="stop-opacity:1;stop-color:#be1c2d"
         offset="1"
         id="stop192" />
    </linearGradient>
    <clipPath
       clipPathUnits="userSpaceOnUse"
       id="clipPath204">
      <path
         d="m 5219.1,7254.25 c 0,0 604.89,-514.74 624.59,-2517.21 l 59.64,3735.01 c 0,0 -210.29,-929.04 -684.23,-1217.8 z"
         id="path202" />
    </clipPath>
    <linearGradient
       x1="0"
       y1="0"
       x2="1"
       y2="0"
       gradientUnits="userSpaceOnUse"
       gradientTransform="matrix(684.229,0,0,-684.229,5219.1,6604.55)"
       spreadMethod="pad"
       id="linearGradient210">
      <stop
         style="stop-opacity:1;stop-color:#ec1d27"
         offset="0"
         id="stop206" />
      <stop
         style="stop-opacity:1;stop-color:#be1c2d"
         offset="1"
         id="stop208" />
    </linearGradient>
    <clipPath
       clipPathUnits="userSpaceOnUse"
       id="clipPath220">
      <path
         d="m 5903.33,8472.05 59.63,-3735.01 c 5.4,1892.62 624.6,2517.21 624.6,2517.21 -473.94,288.76 -684.23,1217.8 -684.23,1217.8 z"
         id="path218" />
    </clipPath>
    <linearGradient
       x1="0"
       y1="0"
       x2="1"
       y2="0"
       gradientUnits="userSpaceOnUse"
       gradientTransform="matrix(684.229,0,0,-684.229,5903.33,6604.55)"
       spreadMethod="pad"
       id="linearGradient226">
      <stop
         style="stop-opacity:1;stop-color:#ec1d27"
         offset="0"
         id="stop222" />
      <stop
         style="stop-opacity:1;stop-color:#be1c2d"
         offset="1"
         id="stop224" />
    </linearGradient>
  </defs>
  <sodipodi:namedview
     id="namedview4"
     pagecolor="#ffffff"
     bordercolor="#000000"
     borderopacity="0.25"
     inkscape:showpageshadow="2"
     inkscape:pageopacity="0.0"
     inkscape:pagecheckerboard="0"
     inkscape:deskcolor="#d1d1d1" />
  <g
     id="g8"
     inkscape:groupmode="layer"
     inkscape:label="ink_ext_XXXXXX"
     transform="matrix(1.3333333,0,0,-1.3333333,0,1612)">
    <g
       id="g10"
       transform="scale(0.1)">
      <path
         d="M 12090,0 H 0 V 12090 H 12090 V 0"
         style="fill:#1b1819;fill-opacity:1;fill-rule:nonzero;stroke:none"
         id="path12" />
      <path
         d="m 2994.05,3454.02 v 970.61 h 664.86 v -183.48 h -443.24 v -190.48 h 393.52 V 3871.4 h -393.52 v -233.91 h 475.92 v -183.47 h -697.54"
         style="fill:#7a7c81;fill-opacity:1;fill-rule:nonzero;stroke:none"
         id="path14" />
      <path
         d="m 5071.03,3641.7 v -187.68 h -657.77 v 970.61 h 221.63 V 3641.7 h 436.14"
         style="fill:#7a7c81;fill-opacity:1;fill-rule:nonzero;stroke:none"
         id="path16" />
      <path
         d="m 5771.4,4424.63 h 221.62 V 3454.02 H 5771.4 v 970.61"
         style="fill:#7a7c81;fill-opacity:1;fill-rule:nonzero;stroke:none"
         id="path18" />
      <path
         d="m 7508.85,4424.63 v -186.28 h -296.91 v -784.33 h -221.63 v 784.33 h -296.92 v 186.28 h 815.46"
         style="fill:#7a7c81;fill-opacity:1;fill-rule:nonzero;stroke:none"
         id="path20" />
      <path
         d="m 8209.23,3454.02 v 970.61 h 664.86 v -183.48 h -443.23 v -190.48 h 393.51 V 3871.4 h -393.51 v -233.91 h 475.91 v -183.47 h -697.54"
         style="fill:#7a7c81;fill-opacity:1;fill-rule:nonzero;stroke:none"
         id="path22" />
      <path
         d="m 4718.66,2776.42 c 0.28,-17.81 -4.42,-33.03 -14.07,-45.68 -6.34,-8.56 -15.3,-14.61 -26.89,-18.15 -6.2,-1.9 -13.44,-2.85 -21.71,-2.85 -15.32,0 -28,3.74 -38.07,11.22 -8.42,6.11 -15.06,14.43 -19.96,24.97 -4.9,10.54 -7.76,22.61 -8.59,36.2 l 37.24,2.66 c 1.65,-14.91 5.65,-25.7 12,-32.4 4.68,-5.04 10.06,-7.43 16.13,-7.17 8.55,0.27 15.38,4.43 20.48,12.46 2.62,3.94 3.93,9.59 3.93,16.94 0,10.61 -4.89,21.15 -14.69,31.63 -7.72,7.21 -19.31,18.03 -34.75,32.45 -12.96,12.38 -22.13,23.48 -27.51,33.28 -5.79,11.02 -8.69,22.99 -8.69,35.92 0,23.27 7.93,40.9 23.79,52.87 9.79,7.21 21.93,10.81 36.41,10.81 13.93,0 25.85,-3.05 35.78,-9.18 7.72,-4.75 13.97,-11.4 18.72,-19.98 4.76,-8.56 7.62,-18.42 8.59,-29.56 l -37.44,-6.73 c -1.11,10.46 -4.14,18.63 -9.1,24.47 -3.59,4.21 -8.76,6.32 -15.52,6.32 -7.17,0 -12.62,-3.13 -16.34,-9.37 -3.04,-5.04 -4.55,-11.3 -4.55,-18.78 0,-11.69 5.1,-23.58 15.3,-35.68 3.86,-4.62 9.65,-10.07 17.38,-16.31 9.11,-7.48 15.1,-12.72 18,-15.7 9.65,-9.52 17.1,-18.91 22.34,-28.15 2.48,-4.35 4.48,-8.37 5.99,-12.04 3.73,-9.11 5.66,-17.27 5.8,-24.47"
         style="fill:#7a7c81;fill-opacity:1;fill-rule:nonzero;stroke:none"
         id="path24" />
      <path
         d="m 5052.75,2929.58 h -41.58 v 38.74 h 122.04 v -38.74 h -41.37 V 2712.8 h -39.09 v 216.78"
         style="fill:#7a7c81;fill-opacity:1;fill-rule:nonzero;stroke:none"
         id="path26" />
      <path
         d="m 5491.92,2709.95 c -17.25,0 -31.86,5.9 -43.86,17.74 -12,11.82 -17.99,26.16 -17.99,43.02 v 197.61 h 38.26 v -197.2 c 0,-6.12 2.21,-11.32 6.62,-15.6 4.42,-4.28 9.73,-6.42 15.94,-6.42 6.2,0 11.47,2.14 15.82,6.42 4.34,4.28 6.51,9.48 6.51,15.6 v 197.2 h 40.76 v -197.61 c 0,-17.12 -6.08,-31.54 -18.21,-43.23 -12.14,-11.69 -26.75,-17.53 -43.85,-17.53"
         style="fill:#7a7c81;fill-opacity:1;fill-rule:nonzero;stroke:none"
         id="path28" />
      <path
         d="m 5893.43,2750.93 h 23.59 c 6.2,0 11.44,2.22 15.71,6.63 4.28,4.41 6.42,9.62 6.42,15.6 v 133.78 c 0,6.11 -2.17,11.35 -6.52,15.71 -4.34,4.35 -9.55,6.52 -15.61,6.52 h -23.59 z m 83.78,23.04 c 0,-16.85 -6,-31.26 -17.99,-43.23 -12,-11.97 -26.49,-17.94 -43.44,-17.94 h -61.44 v 255.73 h 61.44 c 17.09,0 31.61,-5.98 43.54,-17.95 11.92,-11.97 17.89,-26.31 17.89,-43.03 v -133.58"
         style="fill:#7a7c81;fill-opacity:1;fill-rule:nonzero;stroke:none"
         id="path30" />
      <path
         d="m 6316.26,2712.8 h -39.1 v 255.52 h 39.1 V 2712.8"
         style="fill:#7a7c81;fill-opacity:1;fill-rule:nonzero;stroke:none"
         id="path32" />
      <path
         d="m 6699.58,2911.22 c 0,6.13 -2.18,11.32 -6.51,15.6 -4.36,4.28 -9.63,6.42 -15.83,6.42 -6.21,0 -11.52,-2.14 -15.93,-6.42 -4.42,-4.28 -6.61,-9.47 -6.61,-15.6 v -139.89 c 0,-6.13 2.19,-11.32 6.61,-15.6 4.41,-4.28 9.72,-6.44 15.93,-6.44 6.2,0 11.47,2.16 15.83,6.44 4.33,4.28 6.51,9.47 6.51,15.6 z m -21.3,60.36 c 17.24,0 31.88,-5.97 43.95,-17.94 12.07,-11.96 18.11,-26.38 18.11,-43.23 v -139.5 c 0,-16.98 -6.08,-31.43 -18.21,-43.32 -12.14,-11.9 -26.76,-17.85 -43.85,-17.85 -17.25,0 -31.86,5.98 -43.86,17.95 -12,11.95 -17.99,26.37 -17.99,43.22 v 139.5 c 0,16.99 6.06,31.44 18.19,43.33 12.14,11.9 26.69,17.84 43.66,17.84"
         style="fill:#7a7c81;fill-opacity:1;fill-rule:nonzero;stroke:none"
         id="path34" />
      <path
         d="m 7167.29,2776.42 c 0.29,-17.81 -4.41,-33.03 -14.06,-45.68 -6.35,-8.56 -15.3,-14.61 -26.89,-18.15 -6.21,-1.9 -13.44,-2.85 -21.72,-2.85 -15.31,0 -28,3.74 -38.06,11.22 -8.42,6.11 -15.07,14.43 -19.96,24.97 -4.9,10.54 -7.76,22.61 -8.59,36.2 l 37.24,2.66 c 1.65,-14.91 5.65,-25.7 12,-32.4 4.67,-5.04 10.06,-7.43 16.13,-7.17 8.54,0.27 15.37,4.43 20.48,12.46 2.61,3.94 3.93,9.59 3.93,16.94 0,10.61 -4.9,21.15 -14.69,31.63 -7.72,7.21 -19.3,18.03 -34.75,32.45 -12.96,12.38 -22.14,23.48 -27.51,33.28 -5.79,11.02 -8.7,22.99 -8.7,35.92 0,23.27 7.94,40.9 23.8,52.87 9.79,7.21 21.92,10.81 36.4,10.81 13.94,0 25.86,-3.05 35.79,-9.18 7.72,-4.75 13.96,-11.4 18.72,-19.98 4.76,-8.56 7.63,-18.42 8.58,-29.56 l -37.44,-6.73 c -1.1,10.46 -4.13,18.63 -9.1,24.47 -3.59,4.21 -8.75,6.32 -15.51,6.32 -7.18,0 -12.62,-3.13 -16.34,-9.37 -3.04,-5.04 -4.55,-11.3 -4.55,-18.78 0,-11.69 5.1,-23.58 15.31,-35.68 3.85,-4.62 9.65,-10.07 17.37,-16.31 9.1,-7.48 15.1,-12.72 18,-15.7 9.64,-9.52 17.09,-18.91 22.33,-28.15 2.48,-4.35 4.49,-8.37 6.01,-12.04 3.72,-9.11 5.65,-17.27 5.78,-24.47"
         style="fill:#7a7c81;fill-opacity:1;fill-rule:nonzero;stroke:none"
         id="path36" />
      <g
         id="g38">
        <g
           id="g40"
           clip-path="url(#clipPath44)">
          <path
             d="m 6622.79,6270.3 c 0,0 473.45,707.76 1004.56,449.09 531.1,-258.65 688.12,-349.51 889.22,-310.45 0,0 -382.92,-401.75 -1060.87,-75.33 -244.82,458.25 -740.72,37.67 -832.91,-63.31"
             style="fill:url(#linearGradient50);fill-opacity:1;fill-rule:nonzero;stroke:none"
             id="path52" />
        </g>
      </g>
      <g
         id="g54">
        <g
           id="g56"
           clip-path="url(#clipPath60)">
          <path
             d="m 5200.56,6270.3 c 0,0 -473.45,707.76 -1004.56,449.09 -531.11,-258.65 -688.13,-349.51 -889.22,-310.45 0,0 382.91,-401.75 1060.87,-75.33 244.81,458.25 740.72,37.67 832.91,-63.31"
             style="fill:url(#linearGradient66);fill-opacity:1;fill-rule:nonzero;stroke:none"
             id="path68" />
        </g>
      </g>
      <g
         id="g70">
        <g
           id="g72"
           clip-path="url(#clipPath76)">
          <path
             d="m 7932.78,7720.9 c -188.32,-652.84 -548.61,-830.17 -512.97,-823.79 2132.52,202.34 1661.72,1966.27 1661.72,1966.27 0,0 -138.22,-822.84 -1148.75,-1142.48"
             style="fill:url(#linearGradient82);fill-opacity:1;fill-rule:nonzero;stroke:none"
             id="path84" />
        </g>
      </g>
      <g
         id="g86">
        <g
           id="g88"
           clip-path="url(#clipPath92)">
          <path
             d="m 3890.57,7720.9 c 188.32,-652.84 548.6,-830.17 512.97,-823.79 -2132.52,202.34 -1661.72,1966.27 -1661.72,1966.27 0,0 138.22,-822.84 1148.75,-1142.48"
             style="fill:url(#linearGradient98);fill-opacity:1;fill-rule:nonzero;stroke:none"
             id="path100" />
        </g>
      </g>
      <g
         id="g102">
        <g
           id="g104"
           clip-path="url(#clipPath108)">
          <path
             d="m 8350.09,6978.22 c -167.71,-78.58 -357.11,-138.74 -567.62,-180.38 841.04,-525.55 1531.71,138.4 1531.71,138.4 -283.19,-198.03 -812.67,-30.73 -964.09,41.98"
             style="fill:url(#linearGradient114);fill-opacity:1;fill-rule:nonzero;stroke:none"
             id="path116" />
        </g>
      </g>
      <g
         id="g118">
        <g
           id="g120"
           clip-path="url(#clipPath124)">
          <path
             d="m 3473.26,6978.22 c 167.71,-78.58 357.11,-138.74 567.62,-180.38 -841.04,-525.55 -1418.33,138.4 -1418.33,138.4 283.19,-198.03 699.29,-30.73 850.71,41.98"
             style="fill:url(#linearGradient130);fill-opacity:1;fill-rule:nonzero;stroke:none"
             id="path132" />
        </g>
      </g>
      <g
         id="g134">
        <g
           id="g136"
           clip-path="url(#clipPath140)">
          <path
             d="m 7838.62,8191.7 c 0,0 8.31,-907.56 -861.44,-1419.63 -869.72,-512.07 -800.83,-1602.05 -841.52,-1739.6 0,0 -55.89,1721.77 742.02,2171.5 0,0 807.14,443.18 960.94,987.73"
             style="fill:url(#linearGradient146);fill-opacity:1;fill-rule:nonzero;stroke:none"
             id="path148" />
        </g>
      </g>
      <g
         id="g150">
        <g
           id="g152"
           clip-path="url(#clipPath156)">
          <path
             d="m 3984.73,8191.7 c 0,0 -8.31,-907.56 861.44,-1419.63 869.72,-512.07 800.82,-1602.05 841.52,-1739.6 0,0 55.88,1721.77 -742.02,2171.5 0,0 -807.15,443.18 -960.94,987.73"
             style="fill:url(#linearGradient162);fill-opacity:1;fill-rule:nonzero;stroke:none"
             id="path164" />
        </g>
      </g>
      <g
         id="g166">
        <g
           id="g168"
           clip-path="url(#clipPath172)">
          <path
             d="m 8990.21,7499.28 c -118.38,-167.59 -270.52,-308.03 -454.97,-421.44 172.18,-39.86 886.27,-133.82 1104.3,654.34 -252.48,-310.5 -561.31,-263.86 -649.33,-232.9"
             style="fill:url(#linearGradient178);fill-opacity:1;fill-rule:nonzero;stroke:none"
             id="path180" />
        </g>
      </g>
      <g
         id="g182">
        <g
           id="g184"
           clip-path="url(#clipPath188)">
          <path
             d="m 2833.13,7499.28 c 118.38,-167.59 270.53,-308.03 454.98,-421.44 -172.19,-39.86 -823.11,-133.82 -1041.14,654.34 252.48,-310.5 498.15,-263.86 586.16,-232.9"
             style="fill:url(#linearGradient194);fill-opacity:1;fill-rule:nonzero;stroke:none"
             id="path196" />
        </g>
      </g>
      <g
         id="g198">
        <g
           id="g200"
           clip-path="url(#clipPath204)">
          <path
             d="m 5219.1,7254.25 c 0,0 604.89,-514.74 624.59,-2517.21 l 59.64,3735.01 c 0,0 -210.29,-929.04 -684.23,-1217.8"
             style="fill:url(#linearGradient210);fill-opacity:1;fill-rule:nonzero;stroke:none"
             id="path212" />
        </g>
      </g>
      <g
         id="g214">
        <g
           id="g216"
           clip-path="url(#clipPath220)">
          <path
             d="m 5903.33,8472.05 59.63,-3735.01 c 5.4,1892.62 624.6,2517.21 624.6,2517.21 -473.94,288.76 -684.23,1217.8 -684.23,1217.8"
             style="fill:url(#linearGradient226);fill-opacity:1;fill-rule:nonzero;stroke:none"
             id="path228" />
        </g>
      </g>
    </g>
  </g>
</svg>
