<svg width="134" height="82" viewBox="0 0 134 82" fill="none" xmlns="http://www.w3.org/2000/svg">
<path d="M86.6024 81.9665L85 78.4525H85.5089L86.9806 81.7122H86.7399L88.2323 78.4525H88.7137L87.1044 81.9665H86.6024Z" fill="#7F7F7F"/>
<path d="M89.4014 81.9665V78.4525H89.8897V81.9665H89.4014ZM89.649 77.676C89.5481 77.676 89.4633 77.6426 89.3945 77.5756C89.3257 77.5087 89.2913 77.4284 89.2913 77.3347C89.2913 77.241 89.3257 77.1629 89.3945 77.1004C89.4633 77.0335 89.5481 77 89.649 77C89.7498 77 89.8346 77.0312 89.9034 77.0937C89.9722 77.1562 90.0066 77.2343 90.0066 77.328C90.0066 77.4261 89.9722 77.5087 89.9034 77.5756C89.8392 77.6426 89.7544 77.676 89.649 77.676Z" fill="#7F7F7F"/>
<path d="M92.1767 81.9665L90.5743 78.4525H91.0832L92.555 81.7122H92.3143L93.8066 78.4525H94.288L92.6788 81.9665H92.1767Z" fill="#7F7F7F"/>
<path d="M94.9757 81.9665V78.4525H95.464V81.9665H94.9757ZM95.2233 77.676C95.1224 77.676 95.0376 77.6426 94.9688 77.5756C94.9001 77.5087 94.8657 77.4284 94.8657 77.3347C94.8657 77.241 94.9001 77.1629 94.9688 77.1004C95.0376 77.0335 95.1224 77 95.2233 77C95.3242 77 95.409 77.0312 95.4778 77.0937C95.5465 77.1562 95.5809 77.2343 95.5809 77.328C95.5809 77.4261 95.5465 77.5087 95.4778 77.5756C95.4136 77.6426 95.3287 77.676 95.2233 77.676Z" fill="#7F7F7F"/>
<path d="M98.26 82C97.9161 82 97.6066 81.9241 97.3315 81.7724C97.061 81.6207 96.8478 81.411 96.692 81.1432C96.5361 80.871 96.4581 80.5587 96.4581 80.2062C96.4581 79.8492 96.5361 79.5368 96.692 79.2691C96.8478 79.0013 97.061 78.7938 97.3315 78.6466C97.6066 78.4949 97.9161 78.419 98.26 78.419C98.5763 78.419 98.8583 78.4882 99.1059 78.6265C99.358 78.7648 99.5575 78.9679 99.7042 79.2356C99.8555 79.4989 99.9311 79.8224 99.9311 80.2062C99.9311 80.5855 99.8578 80.909 99.7111 81.1767C99.5644 81.4444 99.3649 81.6497 99.1128 81.7925C98.8652 81.9308 98.5809 82 98.26 82ZM98.2944 81.5783C98.5511 81.5783 98.7804 81.5225 98.9821 81.411C99.1884 81.295 99.3489 81.1343 99.4635 80.929C99.5827 80.7193 99.6423 80.4784 99.6423 80.2062C99.6423 79.9295 99.5827 79.6885 99.4635 79.4833C99.3489 79.278 99.1884 79.1196 98.9821 79.008C98.7804 78.892 98.5511 78.834 98.2944 78.834C98.0422 78.834 97.8152 78.892 97.6135 79.008C97.4118 79.1196 97.2513 79.278 97.1321 79.4833C97.0129 79.6885 96.9533 79.9295 96.9533 80.2062C96.9533 80.4784 97.0129 80.7193 97.1321 80.929C97.2513 81.1343 97.4118 81.295 97.6135 81.411C97.8152 81.5225 98.0422 81.5783 98.2944 81.5783ZM99.6561 81.9665V80.909L99.7042 80.1995L99.6354 79.49V77H100.124V81.9665H99.6561Z" fill="#7F7F7F"/>
<path d="M104.783 82C104.425 82 104.104 81.9241 103.82 81.7724C103.54 81.6162 103.32 81.4043 103.16 81.1365C102.999 80.8643 102.919 80.5542 102.919 80.2062C102.919 79.8536 102.999 79.5435 103.16 79.2758C103.32 79.008 103.54 78.7983 103.82 78.6466C104.104 78.4949 104.425 78.419 104.783 78.419C105.09 78.419 105.367 78.477 105.615 78.593C105.862 78.7091 106.057 78.8831 106.199 79.1151L105.835 79.3561C105.711 79.1776 105.558 79.046 105.374 78.9612C105.191 78.8764 104.991 78.834 104.776 78.834C104.519 78.834 104.288 78.892 104.081 79.008C103.875 79.1196 103.712 79.278 103.593 79.4833C103.474 79.6885 103.414 79.9295 103.414 80.2062C103.414 80.4828 103.474 80.7238 103.593 80.929C103.712 81.1343 103.875 81.295 104.081 81.411C104.288 81.5225 104.519 81.5783 104.776 81.5783C104.991 81.5783 105.191 81.5359 105.374 81.4511C105.558 81.3664 105.711 81.2369 105.835 81.0629L106.199 81.3039C106.057 81.5315 105.862 81.7055 105.615 81.826C105.367 81.942 105.09 82 104.783 82Z" fill="#7F7F7F"/>
<path d="M107.159 81.9665V78.4525H107.626V79.4096L107.578 79.2423C107.679 78.9746 107.849 78.7715 108.087 78.6332C108.325 78.4904 108.621 78.419 108.974 78.419V78.8809C108.956 78.8809 108.938 78.8809 108.919 78.8809C108.901 78.8764 108.883 78.8742 108.864 78.8742C108.484 78.8742 108.186 78.988 107.97 79.2155C107.755 79.4386 107.647 79.7577 107.647 80.1727V81.9665H107.159Z" fill="#7F7F7F"/>
<path d="M111.365 82C110.989 82 110.659 81.9241 110.375 81.7724C110.091 81.6162 109.868 81.4043 109.708 81.1365C109.547 80.8643 109.467 80.5542 109.467 80.2062C109.467 79.8581 109.543 79.5502 109.694 79.2825C109.85 79.0147 110.061 78.805 110.327 78.6533C110.597 78.4971 110.9 78.419 111.235 78.419C111.574 78.419 111.874 78.4949 112.136 78.6466C112.401 78.7938 112.61 79.0036 112.761 79.2758C112.913 79.5435 112.988 79.8536 112.988 80.2062C112.988 80.2285 112.986 80.253 112.981 80.2798C112.981 80.3021 112.981 80.3266 112.981 80.3534H109.839V79.9987H112.72L112.528 80.1392C112.528 79.8849 112.47 79.6595 112.356 79.4632C112.246 79.2624 112.094 79.1062 111.902 78.9946C111.709 78.8831 111.487 78.8273 111.235 78.8273C110.987 78.8273 110.765 78.8831 110.568 78.9946C110.37 79.1062 110.217 79.2624 110.107 79.4632C109.997 79.664 109.942 79.8938 109.942 80.1526V80.2262C109.942 80.494 110.001 80.7305 110.12 80.9357C110.244 81.1365 110.414 81.295 110.629 81.411C110.849 81.5225 111.099 81.5783 111.379 81.5783C111.599 81.5783 111.803 81.5404 111.991 81.4645C112.184 81.3887 112.349 81.2726 112.486 81.1165L112.761 81.4244C112.601 81.6118 112.399 81.7546 112.156 81.8527C111.918 81.9509 111.654 82 111.365 82Z" fill="#7F7F7F"/>
<path d="M116.144 81.9665V81.1901L116.123 81.0629V79.7644C116.123 79.4654 116.036 79.2356 115.862 79.075C115.692 78.9143 115.438 78.834 115.099 78.834C114.865 78.834 114.643 78.8719 114.432 78.9478C114.221 79.0237 114.042 79.1241 113.895 79.249L113.675 78.8942C113.858 78.7425 114.079 78.6265 114.335 78.5462C114.592 78.4614 114.863 78.419 115.147 78.419C115.614 78.419 115.974 78.5328 116.227 78.7604C116.483 78.9835 116.612 79.3249 116.612 79.7845V81.9665H116.144ZM114.899 82C114.629 82 114.393 81.9576 114.191 81.8728C113.994 81.7836 113.842 81.6631 113.737 81.5114C113.632 81.3552 113.579 81.1767 113.579 80.9759C113.579 80.7929 113.622 80.6278 113.709 80.4806C113.801 80.3289 113.948 80.2084 114.15 80.1191C114.356 80.0254 114.631 79.9786 114.975 79.9786H116.22V80.3333H114.989C114.64 80.3333 114.397 80.3936 114.26 80.5141C114.127 80.6345 114.06 80.784 114.06 80.9625C114.06 81.1633 114.14 81.324 114.301 81.4444C114.461 81.5649 114.686 81.6252 114.975 81.6252C115.25 81.6252 115.486 81.5649 115.683 81.4444C115.885 81.3195 116.032 81.141 116.123 80.909L116.233 81.2369C116.142 81.469 115.981 81.6542 115.752 81.7925C115.527 81.9308 115.243 82 114.899 82Z" fill="#7F7F7F"/>
<path d="M119.08 82C118.74 82 118.479 81.9108 118.296 81.7323C118.112 81.5538 118.02 81.3017 118.02 80.9759V77.676H118.509V80.9491C118.509 81.1544 118.561 81.3128 118.667 81.4244C118.777 81.5359 118.933 81.5917 119.135 81.5917C119.35 81.5917 119.529 81.5315 119.671 81.411L119.843 81.7523C119.747 81.8371 119.63 81.8996 119.492 81.9398C119.359 81.9799 119.222 82 119.08 82ZM117.374 78.8474V78.4525H119.609V78.8474H117.374Z" fill="#7F7F7F"/>
<path d="M120.732 81.9665V78.4525H121.22V81.9665H120.732ZM120.979 77.676C120.879 77.676 120.794 77.6426 120.725 77.5756C120.656 77.5087 120.622 77.4284 120.622 77.3347C120.622 77.241 120.656 77.1629 120.725 77.1004C120.794 77.0335 120.879 77 120.979 77C121.08 77 121.165 77.0312 121.234 77.0937C121.303 77.1562 121.337 77.2343 121.337 77.328C121.337 77.4261 121.303 77.5087 121.234 77.5756C121.17 77.6426 121.085 77.676 120.979 77.676Z" fill="#7F7F7F"/>
<path d="M124.05 82C123.702 82 123.388 81.9241 123.108 81.7724C122.833 81.6162 122.615 81.4043 122.455 81.1365C122.294 80.8643 122.214 80.5542 122.214 80.2062C122.214 79.8536 122.294 79.5435 122.455 79.2758C122.615 79.008 122.833 78.7983 123.108 78.6466C123.383 78.4949 123.697 78.419 124.05 78.419C124.408 78.419 124.724 78.4949 125 78.6466C125.279 78.7983 125.497 79.008 125.653 79.2758C125.813 79.5435 125.894 79.8536 125.894 80.2062C125.894 80.5542 125.813 80.8643 125.653 81.1365C125.497 81.4043 125.279 81.6162 125 81.7724C124.72 81.9241 124.403 82 124.05 82ZM124.05 81.5783C124.312 81.5783 124.543 81.5225 124.745 81.411C124.947 81.295 125.105 81.1343 125.22 80.929C125.339 80.7193 125.398 80.4784 125.398 80.2062C125.398 79.9295 125.339 79.6885 125.22 79.4833C125.105 79.278 124.947 79.1196 124.745 79.008C124.543 78.892 124.314 78.834 124.057 78.834C123.801 78.834 123.571 78.892 123.37 79.008C123.168 79.1196 123.007 79.278 122.888 79.4833C122.769 79.6885 122.709 79.9295 122.709 80.2062C122.709 80.4784 122.769 80.7193 122.888 80.929C123.007 81.1343 123.168 81.295 123.37 81.411C123.571 81.5225 123.798 81.5783 124.05 81.5783Z" fill="#7F7F7F"/>
<path d="M128.734 78.419C129.027 78.419 129.284 78.4748 129.504 78.5863C129.728 78.6934 129.903 78.8585 130.026 79.0817C130.155 79.3048 130.219 79.5859 130.219 79.925V81.9665H129.731V79.9719C129.731 79.6015 129.634 79.3226 129.442 79.1352C129.254 78.9433 128.988 78.8474 128.644 78.8474C128.387 78.8474 128.163 78.8987 127.97 79.0013C127.782 79.0995 127.635 79.2445 127.53 79.4364C127.429 79.6238 127.379 79.8514 127.379 80.1191V81.9665H126.89V78.4525H127.358V79.4163L127.282 79.2356C127.397 78.9813 127.58 78.7827 127.833 78.6399C128.085 78.4926 128.385 78.419 128.734 78.419Z" fill="#7F7F7F"/>
<path d="M132.508 82C132.21 82 131.928 81.9598 131.662 81.8795C131.396 81.7947 131.187 81.6899 131.036 81.5649L131.256 81.1901C131.403 81.2972 131.591 81.3909 131.82 81.4712C132.049 81.5471 132.29 81.585 132.542 81.585C132.886 81.585 133.133 81.5337 133.285 81.4311C133.436 81.324 133.512 81.1834 133.512 81.0094C133.512 80.88 133.468 80.7796 133.381 80.7082C133.299 80.6323 133.188 80.5765 133.051 80.5408C132.913 80.5007 132.76 80.4672 132.59 80.4404C132.421 80.4137 132.251 80.3824 132.081 80.3467C131.916 80.311 131.765 80.2597 131.627 80.1928C131.49 80.1214 131.377 80.0254 131.29 79.905C131.208 79.7845 131.167 79.6238 131.167 79.423C131.167 79.2311 131.222 79.0593 131.332 78.9076C131.442 78.7559 131.602 78.6377 131.813 78.5529C132.029 78.4636 132.29 78.419 132.597 78.419C132.831 78.419 133.065 78.4502 133.299 78.5127C133.532 78.5707 133.725 78.6488 133.876 78.747L133.663 79.1285C133.503 79.0214 133.331 78.9456 133.147 78.9009C132.964 78.8519 132.78 78.8273 132.597 78.8273C132.272 78.8273 132.031 78.8831 131.875 78.9946C131.724 79.1017 131.648 79.2401 131.648 79.4096C131.648 79.5435 131.689 79.6484 131.772 79.7242C131.859 79.8001 131.971 79.8603 132.109 79.905C132.251 79.9451 132.404 79.9786 132.57 80.0054C132.739 80.0321 132.907 80.0656 133.072 80.1058C133.241 80.1415 133.395 80.1928 133.532 80.2597C133.674 80.3222 133.787 80.4137 133.869 80.5341C133.956 80.6502 134 80.8041 134 80.996C134 81.2012 133.94 81.3797 133.821 81.5315C133.707 81.6787 133.537 81.7947 133.312 81.8795C133.092 81.9598 132.824 82 132.508 82Z" fill="#7F7F7F"/>
<path d="M94 16L86.9308 26.9998H59.9647C59.9647 26.9998 58.4952 27.2035 58.4952 28.4647C58.4952 29.7042 60.1941 30.0206 60.1941 30.0206H84.1773C84.1773 30.0206 92.1158 31.2601 92.6453 36.5563C93.1748 41.8525 89.5696 49.6321 69.2799 57H46.0072L53.2132 46.3166H83.7581C83.7581 46.3166 86.9264 41.8525 81.737 40.3876H56.6992C56.6992 40.3876 45.7998 38.1123 46.0028 28.7767C46.2323 19.4239 57.2244 16.1084 57.2244 16.1084L94 16Z" fill="#211E1D"/>
<path d="M93.0939 11.3686C93.0939 11.3686 107.716 20.7927 87.3696 41.7814C87.3696 41.7814 71.9204 57.0797 41 64C41 64 72.862 62.5205 96.3827 39.9823C96.3827 39.9823 113.971 22.4779 101.577 8.11198C101.577 8.11198 97.3198 7.06583 93.0939 11.3686Z" fill="#DC2E27"/>
<path d="M93 8.5C93 9.86634 91.8845 11 90.4851 11C89.1155 11 88 9.86634 88 8.5C88 7.13367 89.1155 6 90.4851 6C91.8845 6.00495 93 7.13862 93 8.5Z" fill="#DC2E27"/>
<path d="M96 10.5C96 11.3276 95.3276 12 94.5 12C93.6724 12 93 11.3276 93 10.5C93 9.67241 93.6724 9 94.5 9C95.3239 9 96 9.67241 96 10.5Z" fill="#DC2E27"/>
<path d="M88 6.5C88 7.3273 87.3273 8 86.5 8C85.6727 8 85 7.3273 85 6.5C85 5.6727 85.6727 5 86.5 5C87.3231 5 88 5.6727 88 6.5Z" fill="#DC2E27"/>
<path d="M86 2C86 3.10306 85.3273 4 84.5 4C83.6727 4 83 3.10306 83 2C83 0.896934 83.6727 0 84.5 0C85.3273 0 86 0.896934 86 2Z" fill="#DC2E27"/>
<path d="M90 2.5C90 2.77547 89.5657 3 89.0095 3C88.4533 3 88 2.77358 88 2.5C88 2.22453 88.4571 2 89.0095 2C89.5619 2 90 2.22642 90 2.5Z" fill="#DC2E27"/>
<path d="M99 7.99048C99 8.54667 98.5472 9 98 9C97.4491 9 97 8.54286 97 7.99048C97 7.43429 97.4528 7 98 7C98.5509 7 99 7.43809 99 7.99048Z" fill="#DC2E27"/>
<path d="M93 4C93 4.55094 92.3143 5 91.4857 5C90.6514 5 90 4.54717 90 4C90 3.44905 90.6514 3 91.4857 3C92.3143 3 93 3.45283 93 4Z" fill="#DC2E27"/>
<path d="M99 6.0116C99 6.56845 98.5648 7 98.0139 7C97.4583 7 97 6.56381 97 6.0116C97 5.45476 97.4583 5 98.0139 5C98.5694 5 99 5.45476 99 6.0116Z" fill="#DC2E27"/>
<path d="M78 1.98611C78 2.54167 77.5417 3 76.9861 3C76.4306 3 76 2.54167 76 1.98611C76 1.43055 76.4306 1 76.9861 1C77.5417 1 78 1.43055 78 1.98611Z" fill="#DC2E27"/>
<path d="M82 2.00952C81.9811 2.56539 81.5283 3.01846 80.9811 2.99942C80.4528 2.99942 80 2.54254 80 1.99048C80.0189 1.43461 80.4717 0.981542 81.0189 1.00058C81.566 1.00058 82 1.45365 82 2.00952Z" fill="#DC2E27"/>
<path d="M97 5.01318C97 6.11209 96.1077 7 95.0132 7C93.8923 7 93 6.10769 93 5.01318C93 3.91428 93.8923 3 95.0132 3C96.1077 3 97 3.91428 97 5.01318Z" fill="#DC2E27"/>
<path d="M3.26737 75C2.62021 75 2.00067 74.9148 1.40876 74.7444C0.816844 74.5667 0.347257 74.3407 0 74.0667L0.532724 72.9444C0.864197 73.1889 1.27459 73.3926 1.76391 73.5556C2.25323 73.7185 2.75438 73.8 3.26737 73.8C3.70145 73.8 4.05265 73.7556 4.32098 73.6667C4.58932 73.5778 4.78662 73.4593 4.9129 73.3111C5.03917 73.1556 5.10231 72.9815 5.10231 72.7889C5.10231 72.5519 5.01155 72.363 4.83003 72.2222C4.64851 72.0741 4.41174 71.9593 4.11973 71.8778C3.83561 71.7889 3.51598 71.7074 3.16083 71.6333C2.81357 71.5593 2.46237 71.4741 2.10722 71.3778C1.75996 71.2741 1.44033 71.1444 1.14832 70.9889C0.864197 70.8259 0.631377 70.6111 0.449856 70.3444C0.268335 70.0778 0.177575 69.737 0.177575 69.3222C0.177575 68.9 0.295958 68.5148 0.532724 68.1667C0.777382 67.8111 1.14437 67.5296 1.63369 67.3222C2.1309 67.1074 2.75833 67 3.51598 67C4.01319 67 4.50645 67.0593 4.99577 67.1778C5.48508 67.2963 5.91126 67.4667 6.2743 67.6889L5.78893 68.8111C5.418 68.6037 5.03523 68.4519 4.64062 68.3556C4.24601 68.2519 3.86718 68.2 3.50414 68.2C3.07796 68.2 2.7307 68.2481 2.46237 68.3444C2.20193 68.4407 2.00857 68.5667 1.88229 68.7222C1.76391 68.8778 1.70472 69.0556 1.70472 69.2556C1.70472 69.4926 1.79153 69.6852 1.96516 69.8333C2.14668 69.9741 2.3795 70.0852 2.66362 70.1667C2.95563 70.2481 3.27921 70.3296 3.63436 70.4111C3.98951 70.4852 4.34071 70.5704 4.68797 70.6667C5.04312 70.763 5.36275 70.8889 5.64687 71.0444C5.93889 71.2 6.17171 71.4111 6.34533 71.6778C6.52686 71.9444 6.61762 72.2815 6.61762 72.6889C6.61762 73.1037 6.49529 73.4889 6.25063 73.8444C6.01386 74.1926 5.64687 74.4741 5.14967 74.6889C4.65246 74.8963 4.02503 75 3.26737 75Z" fill="#211E1D"/>
<path d="M6.97166 74.8889L10.7007 67.1111H12.216L15.9569 74.8889H14.3469L11.1387 67.8778H11.7543L8.55799 74.8889H6.97166ZM8.68821 73.0889L9.10255 71.9556H13.5774L13.9918 73.0889H8.68821Z" fill="#211E1D"/>
<path d="M20.7663 75C20.1192 75 19.5233 74.9037 18.9788 74.7111C18.4421 74.5111 17.9725 74.2333 17.57 73.8778C17.1675 73.5148 16.8558 73.0889 16.6348 72.6C16.4138 72.1111 16.3033 71.5778 16.3033 71C16.3033 70.4222 16.4138 69.8889 16.6348 69.4C16.8558 68.9111 17.1675 68.4889 17.57 68.1333C17.9804 67.7704 18.4579 67.4926 19.0024 67.3C19.547 67.1 20.1429 67 20.79 67C21.4924 67 22.1238 67.1074 22.6841 67.3222C23.2524 67.537 23.7299 67.8519 24.1166 68.2667L23.1458 69.1556C22.8223 68.8519 22.4711 68.6296 22.0922 68.4889C21.7213 68.3407 21.3109 68.2667 20.861 68.2667C20.427 68.2667 20.0245 68.3333 19.6535 68.4667C19.2826 68.6 18.963 68.7889 18.6946 69.0333C18.4263 69.2778 18.2172 69.5667 18.0672 69.9C17.9251 70.2333 17.8541 70.6 17.8541 71C17.8541 71.3926 17.9251 71.7556 18.0672 72.0889C18.2172 72.4222 18.4263 72.7148 18.6946 72.9667C18.963 73.2111 19.2787 73.4 19.6417 73.5333C20.0047 73.6667 20.4072 73.7333 20.8492 73.7333C21.2596 73.7333 21.6542 73.6741 22.033 73.5556C22.4198 73.4296 22.7867 73.2222 23.134 72.9333L24.01 74.0111C23.576 74.337 23.0709 74.5852 22.4947 74.7556C21.9265 74.9185 21.3504 75 20.7663 75ZM22.5539 73.8222V70.9111H24.01V74.0111L22.5539 73.8222Z" fill="#211E1D"/>
<path d="M26.0398 74.8889V67.1111H27.3065L30.9291 72.7889H30.2661L33.8295 67.1111H35.0962L35.108 74.8889H33.6519L33.64 69.2556H33.9478L30.9172 74H30.2306L27.1526 69.2556H27.5078V74.8889H26.0398Z" fill="#211E1D"/>
<path d="M38.767 70.3444H42.8867V71.5333H38.767V70.3444ZM38.8853 73.6778H43.5615V74.8889H37.3464V67.1111H43.3957V68.3222H38.8853V73.6778Z" fill="#211E1D"/>
<path d="M46.9581 74.8889V68.3333H44.2117V67.1111H51.2436V68.3333H48.4971V74.8889H46.9581Z" fill="#211E1D"/>
<path d="M52.3986 74.8889V67.1111H53.9376V74.8889H52.3986Z" fill="#211E1D"/>
<path d="M60.0146 75C59.3832 75 58.7953 74.9037 58.2507 74.7111C57.714 74.5111 57.2444 74.2333 56.8419 73.8778C56.4473 73.5148 56.1395 73.0889 55.9185 72.6C55.6976 72.1111 55.5871 71.5778 55.5871 71C55.5871 70.4222 55.6976 69.8889 55.9185 69.4C56.1395 68.9111 56.4513 68.4889 56.8538 68.1333C57.2563 67.7704 57.7259 67.4926 58.2625 67.3C58.7992 67.1 59.3872 67 60.0264 67C60.7052 67 61.3247 67.1111 61.885 67.3333C62.4454 67.5481 62.9189 67.8704 63.3056 68.3L62.3112 69.1778C62.0113 68.8741 61.6759 68.6481 61.305 68.5C60.934 68.3444 60.5315 68.2667 60.0975 68.2667C59.6634 68.2667 59.2648 68.3333 58.9018 68.4667C58.5466 68.6 58.2349 68.7889 57.9666 69.0333C57.7061 69.2778 57.5009 69.5667 57.351 69.9C57.2089 70.2333 57.1379 70.6 57.1379 71C57.1379 71.4 57.2089 71.7667 57.351 72.1C57.5009 72.4333 57.7061 72.7222 57.9666 72.9667C58.2349 73.2111 58.5466 73.4 58.9018 73.5333C59.2648 73.6667 59.6634 73.7333 60.0975 73.7333C60.5315 73.7333 60.934 73.6593 61.305 73.5111C61.6759 73.3556 62.0113 73.1222 62.3112 72.8111L63.3056 73.7C62.9189 74.1222 62.4454 74.4444 61.885 74.6667C61.3247 74.8889 60.7012 75 60.0146 75Z" fill="#211E1D"/>
<path d="M71.3237 74.8889V67.1111H72.8627V74.8889H71.3237Z" fill="#211E1D"/>
<path d="M75.1041 74.8889V67.1111H76.3708L81.5678 73.1H80.9404V67.1111H82.4675V74.8889H81.2008L76.0038 68.9H76.6312V74.8889H75.1041Z" fill="#211E1D"/>
<path d="M86.0968 70.6889H90.2284V71.9111H86.0968V70.6889ZM86.227 74.8889H84.688V67.1111H90.7374V68.3222H86.227V74.8889Z" fill="#211E1D"/>
<path d="M96.0162 75C95.369 75 94.7732 74.9 94.2286 74.7C93.684 74.5 93.2105 74.2222 92.808 73.8667C92.4055 73.5037 92.0938 73.0815 91.8728 72.6C91.6518 72.1111 91.5413 71.5778 91.5413 71C91.5413 70.4222 91.6518 69.8926 91.8728 69.4111C92.0938 68.9222 92.4055 68.5 92.808 68.1444C93.2105 67.7815 93.684 67.5 94.2286 67.3C94.7732 67.1 95.3651 67 96.0044 67C96.6515 67 97.2434 67.1 97.7801 67.3C98.3247 67.5 98.7982 67.7815 99.2007 68.1444C99.6032 68.5 99.9149 68.9222 100.136 69.4111C100.357 69.8926 100.467 70.4222 100.467 71C100.467 71.5778 100.357 72.1111 100.136 72.6C99.9149 73.0889 99.6032 73.5111 99.2007 73.8667C98.7982 74.2222 98.3247 74.5 97.7801 74.7C97.2434 74.9 96.6555 75 96.0162 75ZM96.0044 73.7333C96.4226 73.7333 96.8094 73.6667 97.1645 73.5333C97.5197 73.4 97.8275 73.2111 98.0879 72.9667C98.3483 72.7148 98.5496 72.4259 98.6917 72.1C98.8416 71.7667 98.9166 71.4 98.9166 71C98.9166 70.6 98.8416 70.237 98.6917 69.9111C98.5496 69.5778 98.3483 69.2889 98.0879 69.0444C97.8275 68.7926 97.5197 68.6 97.1645 68.4667C96.8094 68.3333 96.4226 68.2667 96.0044 68.2667C95.5861 68.2667 95.1993 68.3333 94.8442 68.4667C94.4969 68.6 94.1891 68.7926 93.9208 69.0444C93.6604 69.2889 93.4552 69.5778 93.3052 69.9111C93.1632 70.237 93.0921 70.6 93.0921 71C93.0921 71.3926 93.1632 71.7556 93.3052 72.0889C93.4552 72.4222 93.6604 72.7148 93.9208 72.9667C94.1813 73.2111 94.4891 73.4 94.8442 73.5333C95.1993 73.6667 95.5861 73.7333 96.0044 73.7333Z" fill="#211E1D"/>
<path d="M103.664 74.8889V68.3333H100.918V67.1111H107.95V68.3333H105.203V74.8889H103.664Z" fill="#211E1D"/>
<path d="M110.525 70.3444H114.645V71.5333H110.525V70.3444ZM110.644 73.6778H115.32V74.8889H109.105V67.1111H115.154V68.3222H110.644V73.6778Z" fill="#211E1D"/>
<path d="M120.871 75C120.24 75 119.652 74.9037 119.107 74.7111C118.57 74.5111 118.101 74.2333 117.698 73.8778C117.304 73.5148 116.996 73.0889 116.775 72.6C116.554 72.1111 116.443 71.5778 116.443 71C116.443 70.4222 116.554 69.8889 116.775 69.4C116.996 68.9111 117.308 68.4889 117.71 68.1333C118.113 67.7704 118.582 67.4926 119.119 67.3C119.656 67.1 120.243 67 120.883 67C121.561 67 122.181 67.1111 122.741 67.3333C123.302 67.5481 123.775 67.8704 124.162 68.3L123.168 69.1778C122.868 68.8741 122.532 68.6481 122.161 68.5C121.79 68.3444 121.388 68.2667 120.954 68.2667C120.52 68.2667 120.121 68.3333 119.758 68.4667C119.403 68.6 119.091 68.7889 118.823 69.0333C118.562 69.2778 118.357 69.5667 118.207 69.9C118.065 70.2333 117.994 70.6 117.994 71C117.994 71.4 118.065 71.7667 118.207 72.1C118.357 72.4333 118.562 72.7222 118.823 72.9667C119.091 73.2111 119.403 73.4 119.758 73.5333C120.121 73.6667 120.52 73.7333 120.954 73.7333C121.388 73.7333 121.79 73.6593 122.161 73.5111C122.532 73.3556 122.868 73.1222 123.168 72.8111L124.162 73.7C123.775 74.1222 123.302 74.4444 122.741 74.6667C122.181 74.8889 121.558 75 120.871 75Z" fill="#211E1D"/>
<path d="M131.461 67.1111H133V74.8889H131.461V67.1111ZM127.176 74.8889H125.637V67.1111H127.176V74.8889ZM131.579 71.5556H127.045V70.3222H131.579V71.5556Z" fill="#211E1D"/>
</svg>
