<?xml version="1.0" encoding="UTF-8" standalone="no"?>
<!-- Created with Inkscape (http://www.inkscape.org/) -->

<svg
   version="1.1"
   id="svg2"
   width="241.33333"
   height="112"
   viewBox="0 0 241.33333 112"
   sodipodi:docname="Logo_170607655524.eps"
   xmlns:inkscape="http://www.inkscape.org/namespaces/inkscape"
   xmlns:sodipodi="http://sodipodi.sourceforge.net/DTD/sodipodi-0.dtd"
   xmlns="http://www.w3.org/2000/svg"
   xmlns:svg="http://www.w3.org/2000/svg">
  <defs
     id="defs6" />
  <sodipodi:namedview
     id="namedview4"
     pagecolor="#ffffff"
     bordercolor="#000000"
     borderopacity="0.25"
     inkscape:showpageshadow="2"
     inkscape:pageopacity="0.0"
     inkscape:pagecheckerboard="0"
     inkscape:deskcolor="#d1d1d1" />
  <g
     id="g8"
     inkscape:groupmode="layer"
     inkscape:label="ink_ext_XXXXXX"
     transform="matrix(1.3333333,0,0,-1.3333333,0,112)">
    <g
       id="g10"
       transform="scale(0.1)">
      <path
         d="M 179.773,594.574 H 263.23 V 452.551 L 376.289,594.574 H 479 L 348.238,431.254 485.414,245.527 H 376.289 L 263.23,401.016 V 245.527 h -83.457 v 349.047"
         style="fill:#e81d2a;fill-opacity:1;fill-rule:evenodd;stroke:none"
         id="path12" />
      <path
         d="m 1358.37,605.449 h 83.46 V 398.75 l 82.19,103.547 h 91.94 L 1517.38,379.871 1624.7,245.527 h -101.45 l -81.42,103.411 V 245.527 h -83.46 v 359.922"
         style="fill:#e81d2a;fill-opacity:1;fill-rule:evenodd;stroke:none"
         id="path14" />
      <path
         d="m 604.078,510.645 c 91.692,0 140.801,-60.961 140.801,-136.125 0,-75.172 -48.375,-136.129 -140.801,-136.129 -92.418,0 -140.793,60.957 -140.793,136.129 0,75.164 49.106,136.125 140.793,136.125 z m 0,-64.579 c 41.649,0 63.945,-32.043 63.945,-71.546 0,-39.508 -21.972,-71.551 -63.945,-71.551 -41.969,0 -63.941,32.043 -63.941,71.551 0,39.503 22.297,71.546 63.941,71.546"
         style="fill:#e81d2a;fill-opacity:1;fill-rule:evenodd;stroke:none"
         id="path16" />
      <path
         d="m 908.109,510.645 c 22.637,0 43.465,-5.981 59.297,-16.079 v 110.883 h 79.964 v -230.929 0 c 0,-75.172 -47.35,-136.129 -139.261,-136.129 -91.906,0 -140.015,60.957 -140.015,136.129 0,75.164 48.836,136.125 140.015,136.125 z m 0,-64.579 c 41.418,0 63.59,-32.043 63.59,-71.546 0,-39.508 -21.847,-71.551 -63.59,-71.551 -41.738,0 -63.589,32.043 -63.589,71.551 0,39.503 22.175,71.546 63.589,71.546"
         style="fill:#e81d2a;fill-opacity:1;fill-rule:evenodd;stroke:none"
         id="path18" />
      <path
         d="m 1072.05,331.102 c 0,65.117 45.68,82.019 119.95,82.019 h 60.03 c 0,30.039 -20.7,39.781 -59.36,39.781 -33.98,0 -64.4,-6.531 -77.71,-14.722 v 60.554 c 22.72,9.579 62.93,13.024 91.93,13.024 75.49,0 116.67,-30.926 116.67,-103.086 l 0.01,-75.348 c 0,-53.219 -48.93,-94.933 -123.94,-94.933 -81.38,0 -127.58,34.871 -127.58,92.711 z m 71.53,3.312 c 0,21.524 18.5,27.82 50.53,27.82 h 57.92 v -27.066 c 0,-18.047 -21.1,-32.199 -53.44,-32.199 -35.08,0 -55.01,11.265 -55.01,31.445"
         style="fill:#e81d2a;fill-opacity:1;fill-rule:evenodd;stroke:none"
         id="path20" />
      <path
         d="M 0,839.441 H 1800 V 776.316 H 0 v 63.125"
         style="fill:#f3bb20;fill-opacity:1;fill-rule:evenodd;stroke:none"
         id="path22" />
      <path
         d="M 0,63.6875 H 1800 V 0.558594 H 0 V 63.6875"
         style="fill:#f3bb20;fill-opacity:1;fill-rule:evenodd;stroke:none"
         id="path24" />
    </g>
  </g>
</svg>
