<svg width="19" height="16" viewBox="0 0 19 16" fill="none" xmlns="http://www.w3.org/2000/svg">
<path d="M18.3897 0.255531C18.3503 0.0955186 18.2027 -0.0111563 18.0458 0.000931551C12.613 0.434586 8.09638 4.25393 5.84899 10.2681C4.59766 8.29928 2.70752 7.98527 1.63019 7.98527C0.829316 7.98527 0.26313 8.14709 0.239361 8.15404C0.112774 8.19091 0.0197768 8.30182 0.00276263 8.43614C-0.0142515 8.57047 0.048379 8.70223 0.161473 8.77113C2.76609 10.3563 4.3675 13.0176 5.25219 14.9706C5.41941 15.3398 5.75619 15.5692 6.1311 15.5692C6.56263 15.5692 6.93036 15.2796 7.06809 14.831C10.2776 4.36925 18.1252 0.684099 18.2044 0.648125C18.3505 0.581489 18.4292 0.415737 18.39 0.25586L18.3897 0.255531Z" fill="black"/>
</svg>
