<svg width="23" height="28" viewBox="0 0 23 28" fill="none" xmlns="http://www.w3.org/2000/svg">
<path d="M4.95942 28H18.0047C20.7717 28 23 25.8301 23 23.1699V9.90498C23 9.02998 22.6405 8.18992 21.9938 7.55998L15.2375 0.979998C14.5908 0.350124 13.7282 0 12.8297 0H4.95942C2.22825 0 0 2.16993 0 4.83005V23.135C0 25.8301 2.22831 28 4.95942 28ZM14.7344 2.45006L20.4845 8.05017H18.1487C16.2799 8.05017 14.7347 6.58017 14.7347 4.72524L14.7344 2.45006ZM1.43756 4.83018C1.43756 2.94031 3.01887 1.40025 4.95936 1.40025H12.8297C13.0094 1.40025 13.153 1.43516 13.2969 1.47032V4.76037C13.2969 7.35024 15.4891 9.45005 18.1483 9.45005H21.4904C21.5262 9.58994 21.5623 9.73008 21.5623 9.90512V23.1701C21.5623 25.06 19.981 26.6 18.0405 26.6L4.95932 26.6003C3.01882 26.6003 1.43752 25.0602 1.43752 23.1703L1.43756 4.83018Z" fill="black"/>
</svg>
