<?xml version="1.0" encoding="utf-8"?>
<!-- Generator: Adobe Illustrator 28.0.0, SVG Export Plug-In . SVG Version: 6.00 Build 0)  -->
<svg version="1.1" id="Capa_1" xmlns="http://www.w3.org/2000/svg" xmlns:xlink="http://www.w3.org/1999/xlink" x="0px" y="0px"
	 viewBox="0 0 308.4 212.9" style="enable-background:new 0 0 308.4 212.9;" xml:space="preserve">
<g>
	<g>
		<circle cx="222.9" cy="44.6" r="37.9"/>
		<path d="M222.9,89.2c-24.6,0-44.6-20-44.6-44.6S198.3,0,222.9,0s44.6,20,44.6,44.6S247.5,89.2,222.9,89.2z M222.9,13.3
			c-17.2,0-31.3,14-31.3,31.3c0,17.2,14,31.3,31.3,31.3s31.3-14,31.3-31.3C254.2,27.3,240.2,13.3,222.9,13.3z"/>
	</g>
	<g>
		<circle cx="75.2" cy="168.3" r="37.9"/>
		<path d="M75.2,212.9c-24.6,0-44.6-20-44.6-44.6c0-24.6,20-44.6,44.6-44.6s44.6,20,44.6,44.6C119.8,192.9,99.8,212.9,75.2,212.9z
			 M75.2,137.1c-17.2,0-31.3,14-31.3,31.3s14,31.3,31.3,31.3s31.3-14,31.3-31.3S92.4,137.1,75.2,137.1z"/>
	</g>
	<rect y="31.3" width="307.1" height="27.9"/>
	<rect x="1.3" y="153.4" width="307.1" height="27.9"/>
</g>
</svg>
