<svg width="19" height="13" viewBox="0 0 19 13" fill="none" xmlns="http://www.w3.org/2000/svg">
<path fill-rule="evenodd" clip-rule="evenodd" d="M0.253675 7.07985L4.9299 11.6068C5.74422 12.4038 6.9658 11.2084 6.15148 10.4112L3.4288 7.74635C3.20128 7.52378 3.27639 7.34558 3.59327 7.34558H13.0263C13.5035 7.34558 13.89 6.96709 13.89 6.50028C13.89 6.03328 13.5035 5.65479 13.0263 5.65479H3.59327C3.27679 5.65479 3.20268 5.4754 3.4288 5.25402L6.15148 2.58899C6.9658 1.79219 5.74422 0.596411 4.9299 1.39341L0.256296 5.89074C-0.0840893 6.21837 -0.0859032 6.75127 0.253675 7.07985ZM19 0.847871C19 0.379687 18.6132 0 18.1363 0C17.6593 0 17.2726 0.379672 17.2726 0.847871V12.1521C17.2726 12.6203 17.6593 13 18.1363 13C18.6132 13 19 12.6203 19 12.1521V0.847871Z" fill="black"/>
</svg>
