<svg width="133" height="27" viewBox="0 0 133 27" fill="none" xmlns="http://www.w3.org/2000/svg">
<path d="M132.012 26.7566H126.96L123.004 20.6147L119.048 26.7566H114.057L120.326 17.2093L114.483 8.14844H119.474L132.012 26.7566Z" fill="#4CCE5F"/>
<path fill-rule="evenodd" clip-rule="evenodd" d="M132.011 8.75678L131.951 8.33109L132.133 8.51353L132.011 8.75678ZM131.829 7.72298L131.768 7.47976L132.681 6.87163L132.255 8.02704L131.829 7.72298ZM131.403 5.5338L130.855 2.73649C130.916 2.67568 131.038 2.61487 131.038 2.55406C131.89 1.88514 132.133 0.851354 132.498 0C133.107 1.33784 132.802 4.5 131.403 5.5338ZM130.855 2.73649L131.403 5.5338C131.342 5.5338 131.281 5.59461 131.22 5.65541C130.733 5.83786 130.185 5.71625 129.82 5.35136L129.577 4.19595C129.881 3.58784 130.307 3.10137 130.855 2.73649ZM131.768 7.54057L131.829 7.78382L131.585 7.66218L131.768 7.54057ZM131.951 8.33109L131.281 7.84462L130.368 8.45273L130.612 9.60814L130.916 9.85139L131.646 9.91219L132.072 8.81759L131.951 8.33109ZM130.855 11.0068L130.733 10.2162L130.855 9.973L131.585 10.0338L130.855 11.0068ZM130.003 6.50677C130.125 6.26352 130.185 6.0811 130.125 6.0203C130.064 5.89866 129.942 5.83786 129.82 5.71622L130.003 6.50677ZM127.264 10.7027C127.386 10.4595 127.507 10.2771 127.507 10.2162C127.386 10.0946 127.264 10.0338 127.142 9.91219L127.264 10.7027ZM129.577 4.19595L129.82 5.35136C129.699 5.22975 129.577 5.10811 129.455 4.92569C129.394 4.68245 129.394 4.37839 129.577 4.19595ZM129.881 5.71622L130.003 6.50677C129.394 7.66218 128.664 8.81759 127.873 9.85139C127.629 9.60814 127.325 9.4257 127.021 9.24328L126.899 8.51353C127.568 7.47974 128.299 6.50677 129.151 5.5338H129.273C129.394 5.5338 129.638 5.59461 129.881 5.71622ZM130.368 8.51353L130.003 8.75678L130.368 9.4865L130.551 9.66895L130.368 8.51353ZM130.672 9.91219V10.0338L127.873 13.7433L127.69 12.8919L130.246 9.54733L130.672 9.91219ZM130.733 10.2771L127.934 13.9865L128.055 14.7771L130.855 11.0068L130.733 10.2771ZM127.69 12.7095L127.568 11.919L129.881 8.81759L130.125 9.4865L127.69 12.7095ZM124.769 13.9865C125.073 13.5608 126.656 11.6149 127.264 10.7027L127.142 9.973C126.838 9.72975 126.595 9.54733 126.229 9.4257C126.047 9.54733 124.282 11.919 123.795 12.5879L124.769 13.9865ZM126.899 8.57434L127.021 9.30409C126.899 9.24328 126.777 9.12164 126.656 9.00003C126.595 9.00003 126.716 8.81759 126.899 8.57434ZM127.507 11.919L127.629 12.7095L125.621 15.3244L125.256 14.8379L127.507 11.919ZM127.751 12.9527L127.873 13.7433L126.168 15.9933L125.803 15.446L127.751 12.9527ZM127.934 13.9865L126.29 16.1757L126.656 16.6622L128.116 14.7771L127.934 13.9865Z" fill="#4CCE5F"/>
<path d="M0 26.7571V8.08813H4.13867V22.9868H12.1117V26.6963H0V26.7571Z" fill="#18181F"/>
<path d="M28.7272 24.1419C26.8405 25.9662 24.5277 26.8784 21.7888 26.8784C19.05 26.8784 16.7372 25.9662 14.8505 24.1419C12.9637 22.3176 12.0508 20.0067 12.0508 17.2703C12.0508 14.5338 12.9637 12.2229 14.8505 10.3986C16.7372 8.57427 19.05 7.66211 21.7888 7.66211C24.5277 7.66211 26.8405 8.57427 28.7272 10.3986C30.6139 12.2229 31.5269 14.5338 31.5269 17.2703C31.5269 20.0675 30.6139 22.3176 28.7272 24.1419ZM27.3273 17.3311C27.3273 15.6891 26.7796 14.2297 25.7449 13.0743C24.6494 11.9189 23.3712 11.3108 21.7888 11.3108C20.2064 11.3108 18.9283 11.9189 17.8327 13.0743C16.7372 14.2297 16.2503 15.6891 16.2503 17.3311C16.2503 18.973 16.7981 20.4324 17.8327 21.5878C18.9283 22.7432 20.2064 23.3514 21.7888 23.3514C23.3712 23.3514 24.6494 22.7432 25.7449 21.5878C26.7796 20.3716 27.3273 18.973 27.3273 17.3311Z" fill="#18181F"/>
<path d="M45.5863 17.2702H49.7859V23.8986C47.9598 25.9662 45.4036 27 42.117 27C39.3782 27 37.0655 26.0878 35.2394 24.2635C33.3527 22.4392 32.4397 20.1892 32.4397 17.3919C32.4397 14.6554 33.4136 12.3446 35.3003 10.4594C37.187 8.63508 39.4999 7.66211 42.1779 7.66211C44.8559 7.66211 47.1685 8.51347 49.177 10.277L46.9252 13.4392C46.0731 12.7094 45.3427 12.2229 44.6123 11.9189C43.8819 11.6148 43.1516 11.4932 42.3606 11.4932C40.778 11.4932 39.4391 12.0405 38.3436 13.1351C37.2479 14.2297 36.7002 15.6283 36.7002 17.3919C36.7002 19.1554 37.2479 20.554 38.2827 21.5878C39.3173 22.6216 40.5345 23.1689 41.9952 23.1689C43.456 23.1689 44.6123 22.8649 45.5863 22.3176V17.2702Z" fill="#18181F"/>
<path d="M67.5577 24.1419C65.6711 25.9662 63.3581 26.8784 60.6193 26.8784C57.8804 26.8784 55.5678 25.9662 53.6811 24.1419C51.7944 22.3176 50.8813 20.0067 50.8813 17.2703C50.8813 14.5338 51.7944 12.2229 53.6811 10.3986C55.5678 8.57427 57.8804 7.66211 60.6193 7.66211C63.3581 7.66211 65.6711 8.57427 67.5577 10.3986C69.4444 12.2229 70.3575 14.5338 70.3575 17.2703C70.3575 20.0675 69.4444 22.3176 67.5577 24.1419ZM66.1579 17.3311C66.1579 15.6891 65.6102 14.2297 64.5753 13.0743C63.4799 11.9189 62.2018 11.3108 60.6193 11.3108C59.037 11.3108 57.7589 11.9189 56.6632 13.0743C55.5678 14.2297 55.081 15.6891 55.081 17.3311C55.081 18.973 55.6287 20.4324 56.6632 21.5878C57.7589 22.7432 59.037 23.3514 60.6193 23.3514C62.2018 23.3514 63.4799 22.7432 64.5753 21.5878C65.6102 20.3716 66.1579 18.973 66.1579 17.3311Z" fill="#18181F"/>
<path d="M88.9816 15.0206L83.9298 25.176H81.4345L76.4439 15.0206V26.7571H72.3052V8.08813H77.9044L82.7126 18.3044L87.5208 8.08813H93.1203V26.6963H88.9816V15.0206Z" fill="#4CCE5F"/>
<path d="M109.431 26.7566L107.727 22.7431H99.937L98.2327 26.7566H93.7898L101.824 8.14844H105.841L113.875 26.7566H109.431ZM103.771 13.6822L101.397 19.0944H106.084L103.771 13.6822Z" fill="#4CCE5F"/>
</svg>
