<?xml version="1.0" encoding="utf-8"?>
<!-- Generator: Adobe Illustrator 28.0.0, SVG Export Plug-In . SVG Version: 6.00 Build 0)  -->
<svg version="1.1" id="Capa_1" xmlns="http://www.w3.org/2000/svg" xmlns:xlink="http://www.w3.org/1999/xlink" x="0px" y="0px"
	 viewBox="0 0 18.7 26.8" style="enable-background:new 0 0 18.7 26.8;" xml:space="preserve">
<style type="text/css">
	.st0{fill:#4CCE5F;}
	.st1{fill-rule:evenodd;clip-rule:evenodd;fill:#4CCE5F;}
</style>
<g>
	<path class="st0" d="M18,26.8h-5.1l-4-6.1l-4,6.1H0l6.3-9.5L0.4,8.1h5L18,26.8z"/>
	<path class="st1" d="M18,8.8l-0.1-0.4l0.2,0.2L18,8.8z M17.8,7.7l-0.1-0.2l0.9-0.6L18.2,8L17.8,7.7z M17.3,5.5l-0.5-2.8
		C16.9,2.7,17,2.6,17,2.6c0.9-0.7,1.1-1.7,1.5-2.6C19,1.3,18.7,4.5,17.3,5.5z M16.8,2.7l0.5,2.8c-0.1,0-0.1,0.1-0.2,0.1
		c-0.5,0.2-1,0.1-1.4-0.3l-0.2-1.2C15.8,3.6,16.3,3.1,16.8,2.7z M17.7,7.5l0.1,0.2l-0.2-0.1L17.7,7.5z M17.9,8.3l-0.7-0.5l-0.9,0.6
		l0.2,1.2l0.3,0.2l0.7,0.1L18,8.8L17.9,8.3z M16.8,11l-0.1-0.8l0.1-0.2l0.7,0.1L16.8,11z M15.9,6.5c0.1-0.2,0.2-0.4,0.1-0.5
		c-0.1-0.1-0.2-0.2-0.3-0.3L15.9,6.5z M13.2,10.7c0.1-0.2,0.2-0.4,0.2-0.5c-0.1-0.1-0.2-0.2-0.4-0.3L13.2,10.7z M15.5,4.2l0.2,1.2
		c-0.1-0.1-0.2-0.2-0.4-0.4C15.3,4.7,15.3,4.4,15.5,4.2z M15.8,5.7l0.1,0.8c-0.6,1.2-1.3,2.3-2.1,3.3c-0.2-0.2-0.5-0.4-0.9-0.6
		l-0.1-0.7c0.7-1,1.4-2,2.3-3h0.1C15.3,5.5,15.6,5.6,15.8,5.7z M16.3,8.5l-0.4,0.2l0.4,0.7l0.2,0.2L16.3,8.5z M16.6,9.9V10l-2.8,3.7
		l-0.2-0.9l2.6-3.3L16.6,9.9z M16.7,10.3L13.9,14l0.1,0.8l2.8-3.8L16.7,10.3z M13.6,12.7l-0.1-0.8l2.3-3.1l0.2,0.7L13.6,12.7z
		 M10.7,14c0.3-0.4,1.9-2.4,2.5-3.3L13.1,10c-0.3-0.2-0.5-0.4-0.9-0.5c-0.2,0.1-1.9,2.5-2.4,3.2L10.7,14z M12.8,8.6L13,9.3
		c-0.1-0.1-0.2-0.2-0.4-0.3C12.5,9,12.7,8.8,12.8,8.6z M13.5,11.9l0.1,0.8l-2,2.6l-0.4-0.5L13.5,11.9z M13.7,13l0.1,0.8L12.1,16
		l-0.4-0.5L13.7,13z M13.9,14l-1.6,2.2l0.4,0.5l1.5-1.9L13.9,14z"/>
</g>
</svg>
