<svg width="63" height="17" viewBox="0 0 63 17" fill="none" xmlns="http://www.w3.org/2000/svg">
<path d="M7.63396 0H2.76861C2.45673 0 2.14485 0.25 2.08247 0.5625L0.148808 13.0625C0.086432 13.3125 0.273561 13.5 0.523066 13.5H2.83099C3.14287 13.5 3.45475 13.25 3.51713 12.9375L4.01613 9.5625C4.07851 9.25 4.32802 9 4.70227 9H6.26168C9.44287 9 11.3142 7.4375 11.8132 4.375C12.0003 3.0625 11.8132 2 11.1894 1.25C10.5033 0.4375 9.25574 0 7.63396 0ZM8.19534 4.5625C7.94584 6.3125 6.57356 6.3125 5.32604 6.3125H4.57752L5.07653 3.0625C5.07653 2.875 5.26366 2.75 5.45079 2.75H5.76267C6.63594 2.75 7.44683 2.75 7.88346 3.25C8.19534 3.5 8.3201 3.9375 8.19534 4.5625Z" fill="#003087"/>
<path d="M22.1052 4.5H19.7973C19.6101 4.5 19.423 4.625 19.423 4.8125L19.2982 5.4375L19.1111 5.1875C18.6121 4.4375 17.4893 4.1875 16.3666 4.1875C13.8091 4.1875 11.626 6.125 11.1893 8.875C10.9398 10.25 11.2517 11.5625 12.0626 12.4375C12.7487 13.25 13.8091 13.625 14.9943 13.625C17.0527 13.625 18.2378 12.3125 18.2378 12.3125L18.1131 12.9375C18.0507 13.1875 18.2378 13.4375 18.4874 13.4375H20.6081C20.92 13.4375 21.2319 13.1875 21.2943 12.875L22.5418 4.875C22.6042 4.75 22.3547 4.5 22.1052 4.5ZM18.924 9C18.6745 10.3125 17.6765 11.25 16.3042 11.25C15.618 11.25 15.119 11.0625 14.7448 10.625C14.3705 10.1875 14.2458 9.625 14.3705 9C14.5577 7.6875 15.6804 6.75 16.9903 6.75C17.6765 6.75 18.1755 7 18.5497 7.375C18.8616 7.8125 18.9864 8.375 18.924 9Z" fill="#003087"/>
<path d="M34.5176 4.5H32.2097C31.9602 4.5 31.7731 4.625 31.6483 4.8125L28.4048 9.5625L27.0325 5C26.9701 4.6875 26.6582 4.5 26.4087 4.5H24.1008C23.8513 4.5 23.6018 4.75 23.7265 5.0625L26.284 12.625L23.8513 16C23.6642 16.25 23.8513 16.625 24.1632 16.625H26.4711C26.7206 16.625 26.9077 16.5 27.0325 16.3125L34.8295 5.0625C35.0166 4.875 34.8295 4.5 34.5176 4.5Z" fill="#003087"/>
<path d="M42.2531 0H37.3878C37.0759 0 36.764 0.25 36.7016 0.5625L34.7679 13C34.7056 13.25 34.8927 13.4375 35.1422 13.4375H37.6373C37.8868 13.4375 38.0739 13.25 38.0739 13.0625L38.6353 9.5C38.6977 9.1875 38.9472 8.9375 39.3214 8.9375H40.8808C44.062 8.9375 45.9333 7.375 46.4323 4.3125C46.6194 3 46.4323 1.9375 45.8085 1.1875C45.06 0.4375 43.8749 0 42.2531 0ZM42.8145 4.5625C42.565 6.3125 41.1927 6.3125 39.9452 6.3125H39.1967L39.6957 3.0625C39.6957 2.875 39.8828 2.75 40.0699 2.75H40.3818C41.2551 2.75 42.066 2.75 42.5026 3.25C42.8145 3.5 42.8769 3.9375 42.8145 4.5625Z" fill="#009CDE"/>
<path d="M56.7224 4.5H54.4144C54.2273 4.5 54.0402 4.625 54.0402 4.8125L53.9154 5.4375L53.7283 5.1875C53.2293 4.4375 52.1065 4.1875 50.9838 4.1875C48.4263 4.1875 46.2432 6.125 45.8065 8.875C45.557 10.25 45.8689 11.5625 46.6798 12.4375C47.3659 13.25 48.4263 13.625 49.6115 13.625C51.6699 13.625 52.855 12.3125 52.855 12.3125L52.7303 12.9375C52.6679 13.1875 52.855 13.4375 53.1045 13.4375H55.2253C55.5372 13.4375 55.8491 13.1875 55.9115 12.875L57.159 4.875C57.159 4.75 56.9719 4.5 56.7224 4.5ZM53.4788 9C53.2293 10.3125 52.2313 11.25 50.859 11.25C50.1729 11.25 49.6739 11.0625 49.2996 10.625C48.9253 10.1875 48.8006 9.625 48.9253 9C49.1125 7.6875 50.2352 6.75 51.5451 6.75C52.2313 6.75 52.7303 7 53.1045 7.375C53.4788 7.8125 53.6036 8.375 53.4788 9Z" fill="#009CDE"/>
<path d="M59.4691 0.3125L57.473 13C57.4107 13.25 57.5978 13.4375 57.8473 13.4375H59.8433C60.1552 13.4375 60.4671 13.1875 60.5295 12.875L62.5255 0.4375C62.5879 0.1875 62.4007 0 62.1512 0H59.9057C59.6562 0 59.5314 0.125 59.4691 0.3125Z" fill="#009CDE"/>
</svg>
