<svg width="87" height="104" viewBox="0 0 87 104" fill="none" xmlns="http://www.w3.org/2000/svg">
<path d="M5.598 99.18C4.614 99.18 3.672 99.042 2.772 98.766C1.872 98.478 1.158 98.112 0.63 97.668L1.44 95.85C1.944 96.246 2.568 96.576 3.312 96.84C4.056 97.104 4.818 97.236 5.598 97.236C6.258 97.236 6.792 97.164 7.2 97.02C7.608 96.876 7.908 96.684 8.1 96.444C8.292 96.192 8.388 95.91 8.388 95.598C8.388 95.214 8.25 94.908 7.974 94.68C7.698 94.44 7.338 94.254 6.894 94.122C6.462 93.978 5.976 93.846 5.436 93.726C4.908 93.606 4.374 93.468 3.834 93.312C3.306 93.144 2.82 92.934 2.376 92.682C1.944 92.418 1.59 92.07 1.314 91.638C1.038 91.206 0.9 90.654 0.9 89.982C0.9 89.298 1.08 88.674 1.44 88.11C1.812 87.534 2.37 87.078 3.114 86.742C3.87 86.394 4.824 86.22 5.976 86.22C6.732 86.22 7.482 86.316 8.226 86.508C8.97 86.7 9.618 86.976 10.17 87.336L9.432 89.154C8.868 88.818 8.286 88.572 7.686 88.416C7.086 88.248 6.51 88.164 5.958 88.164C5.31 88.164 4.782 88.242 4.374 88.398C3.978 88.554 3.684 88.758 3.492 89.01C3.312 89.262 3.222 89.55 3.222 89.874C3.222 90.258 3.354 90.57 3.618 90.81C3.894 91.038 4.248 91.218 4.68 91.35C5.124 91.482 5.616 91.614 6.156 91.746C6.696 91.866 7.23 92.004 7.758 92.16C8.298 92.316 8.784 92.52 9.216 92.772C9.66 93.024 10.014 93.366 10.278 93.798C10.554 94.23 10.692 94.776 10.692 95.436C10.692 96.108 10.506 96.732 10.134 97.308C9.774 97.872 9.216 98.328 8.46 98.676C7.704 99.012 6.75 99.18 5.598 99.18ZM17.3143 99.126C16.2463 99.126 15.3103 98.916 14.5063 98.496C13.7143 98.064 13.0963 97.476 12.6523 96.732C12.2203 95.988 12.0043 95.142 12.0043 94.194C12.0043 93.234 12.2143 92.388 12.6343 91.656C13.0663 90.912 13.6543 90.33 14.3983 89.91C15.1543 89.49 16.0123 89.28 16.9723 89.28C17.9083 89.28 18.7423 89.484 19.4743 89.892C20.2063 90.3 20.7823 90.876 21.2023 91.62C21.6223 92.364 21.8323 93.24 21.8323 94.248C21.8323 94.344 21.8263 94.452 21.8143 94.572C21.8143 94.692 21.8083 94.806 21.7963 94.914H13.7863V93.42H20.6083L19.7263 93.888C19.7383 93.336 19.6243 92.85 19.3843 92.43C19.1443 92.01 18.8143 91.68 18.3943 91.44C17.9863 91.2 17.5123 91.08 16.9723 91.08C16.4203 91.08 15.9343 91.2 15.5143 91.44C15.1063 91.68 14.7823 92.016 14.5423 92.448C14.3143 92.868 14.2003 93.366 14.2003 93.942V94.302C14.2003 94.878 14.3323 95.388 14.5963 95.832C14.8603 96.276 15.2323 96.618 15.7123 96.858C16.1923 97.098 16.7443 97.218 17.3683 97.218C17.9083 97.218 18.3943 97.134 18.8263 96.966C19.2583 96.798 19.6423 96.534 19.9783 96.174L21.1843 97.56C20.7523 98.064 20.2063 98.454 19.5463 98.73C18.8983 98.994 18.1543 99.126 17.3143 99.126ZM28.5116 99.126C27.4436 99.126 26.5076 98.916 25.7036 98.496C24.9116 98.064 24.2936 97.476 23.8496 96.732C23.4176 95.988 23.2016 95.142 23.2016 94.194C23.2016 93.234 23.4116 92.388 23.8316 91.656C24.2636 90.912 24.8516 90.33 25.5956 89.91C26.3516 89.49 27.2096 89.28 28.1696 89.28C29.1056 89.28 29.9396 89.484 30.6716 89.892C31.4036 90.3 31.9796 90.876 32.3996 91.62C32.8196 92.364 33.0296 93.24 33.0296 94.248C33.0296 94.344 33.0236 94.452 33.0116 94.572C33.0116 94.692 33.0056 94.806 32.9936 94.914H24.9836V93.42H31.8056L30.9236 93.888C30.9356 93.336 30.8216 92.85 30.5816 92.43C30.3416 92.01 30.0116 91.68 29.5916 91.44C29.1836 91.2 28.7096 91.08 28.1696 91.08C27.6176 91.08 27.1316 91.2 26.7116 91.44C26.3036 91.68 25.9796 92.016 25.7396 92.448C25.5116 92.868 25.3976 93.366 25.3976 93.942V94.302C25.3976 94.878 25.5296 95.388 25.7936 95.832C26.0576 96.276 26.4296 96.618 26.9096 96.858C27.3896 97.098 27.9416 97.218 28.5656 97.218C29.1056 97.218 29.5916 97.134 30.0236 96.966C30.4556 96.798 30.8396 96.534 31.1756 96.174L32.3816 97.56C31.9496 98.064 31.4036 98.454 30.7436 98.73C30.0956 98.994 29.3516 99.126 28.5116 99.126ZM40.3815 99V86.4H42.3075L47.8155 95.598H46.8075L52.2255 86.4H54.1515L54.1695 99H51.9555L51.9375 89.874H52.4055L47.7975 97.56H46.7535L42.0735 89.874H42.6135V99H40.3815ZM61.6769 99.126C60.6929 99.126 59.8169 98.916 59.0489 98.496C58.2809 98.064 57.6749 97.476 57.2309 96.732C56.7869 95.988 56.5649 95.142 56.5649 94.194C56.5649 93.234 56.7869 92.388 57.2309 91.656C57.6749 90.912 58.2809 90.33 59.0489 89.91C59.8169 89.49 60.6929 89.28 61.6769 89.28C62.6729 89.28 63.5549 89.49 64.3229 89.91C65.1029 90.33 65.7089 90.906 66.1409 91.638C66.5849 92.37 66.8069 93.222 66.8069 94.194C66.8069 95.142 66.5849 95.988 66.1409 96.732C65.7089 97.476 65.1029 98.064 64.3229 98.496C63.5549 98.916 62.6729 99.126 61.6769 99.126ZM61.6769 97.2C62.2289 97.2 62.7209 97.08 63.1529 96.84C63.5849 96.6 63.9209 96.252 64.1609 95.796C64.4129 95.34 64.5389 94.806 64.5389 94.194C64.5389 93.57 64.4129 93.036 64.1609 92.592C63.9209 92.136 63.5849 91.788 63.1529 91.548C62.7209 91.308 62.2349 91.188 61.6949 91.188C61.1429 91.188 60.6509 91.308 60.2189 91.548C59.7989 91.788 59.4629 92.136 59.2109 92.592C58.9589 93.036 58.8329 93.57 58.8329 94.194C58.8329 94.806 58.9589 95.34 59.2109 95.796C59.4629 96.252 59.7989 96.6 60.2189 96.84C60.6509 97.08 61.1369 97.2 61.6769 97.2ZM68.9584 99V89.388H71.1004V92.034L70.8484 91.26C71.1364 90.612 71.5864 90.12 72.1984 89.784C72.8224 89.448 73.5964 89.28 74.5204 89.28V91.422C74.4244 91.398 74.3344 91.386 74.2504 91.386C74.1664 91.374 74.0824 91.368 73.9984 91.368C73.1464 91.368 72.4684 91.62 71.9644 92.124C71.4604 92.616 71.2084 93.354 71.2084 94.338V99H68.9584ZM80.8592 99.126C79.7912 99.126 78.8552 98.916 78.0512 98.496C77.2592 98.064 76.6412 97.476 76.1972 96.732C75.7652 95.988 75.5492 95.142 75.5492 94.194C75.5492 93.234 75.7592 92.388 76.1792 91.656C76.6112 90.912 77.1992 90.33 77.9432 89.91C78.6992 89.49 79.5572 89.28 80.5172 89.28C81.4532 89.28 82.2872 89.484 83.0192 89.892C83.7512 90.3 84.3272 90.876 84.7472 91.62C85.1672 92.364 85.3772 93.24 85.3772 94.248C85.3772 94.344 85.3712 94.452 85.3592 94.572C85.3592 94.692 85.3532 94.806 85.3412 94.914H77.3312V93.42H84.1532L83.2712 93.888C83.2832 93.336 83.1692 92.85 82.9292 92.43C82.6892 92.01 82.3592 91.68 81.9392 91.44C81.5312 91.2 81.0572 91.08 80.5172 91.08C79.9652 91.08 79.4792 91.2 79.0592 91.44C78.6512 91.68 78.3272 92.016 78.0872 92.448C77.8592 92.868 77.7452 93.366 77.7452 93.942V94.302C77.7452 94.878 77.8772 95.388 78.1412 95.832C78.4052 96.276 78.7772 96.618 79.2572 96.858C79.7372 97.098 80.2892 97.218 80.9132 97.218C81.4532 97.218 81.9392 97.134 82.3712 96.966C82.8032 96.798 83.1872 96.534 83.5232 96.174L84.7292 97.56C84.2972 98.064 83.7512 98.454 83.0912 98.73C82.4432 98.994 81.6992 99.126 80.8592 99.126Z" fill="#656F79"/>
<path d="M67.8908 0H27.2808C26.3755 -3.87002e-06 25.5072 0.358944 24.8661 0.998158C24.225 1.63737 23.8635 2.50469 23.8608 3.41V55.16C23.8635 56.0653 24.225 56.9326 24.8661 57.5718C25.5072 58.2111 26.3755 58.57 27.2808 58.57H67.8908C68.7952 58.57 69.6626 58.2107 70.3021 57.5712C70.9416 56.9317 71.3008 56.0644 71.3008 55.16V3.41C71.3008 2.50561 70.9416 1.63827 70.3021 0.998766C69.6626 0.359267 68.7952 0 67.8908 0ZM68.3008 55.16C68.2983 55.2679 68.2543 55.3708 68.1779 55.4471C68.1016 55.5234 67.9988 55.5675 67.8908 55.57H27.2808C27.1712 55.57 27.0658 55.5272 26.9873 55.4505C26.9089 55.3739 26.8635 55.2697 26.8608 55.16V3.41C26.8635 3.30035 26.9089 3.19607 26.9873 3.11946C27.0658 3.04284 27.1712 2.99997 27.2808 3H67.8908C67.9988 3.00254 68.1016 3.04655 68.1779 3.1229C68.2543 3.19924 68.2983 3.30206 68.3008 3.41V55.16Z" fill="#656F79"/>
<path d="M60.1007 63.9999H19.3307C19.1907 63.9999 19.0007 63.8099 19.0007 63.5199V11.9399C19.0007 11.5421 18.8427 11.1606 18.5614 10.8793C18.2801 10.598 17.8986 10.4399 17.5007 10.4399C17.1029 10.4399 16.7214 10.598 16.4401 10.8793C16.1588 11.1606 16.0007 11.5421 16.0007 11.9399V63.4999C15.982 64.4027 16.322 65.276 16.9463 65.9284C17.5705 66.5808 18.428 66.959 19.3307 66.9799H60.1007C60.4986 66.9799 60.8801 66.8219 61.1614 66.5406C61.4427 66.2593 61.6007 65.8778 61.6007 65.4799C61.6007 65.0821 61.4427 64.7006 61.1614 64.4193C60.8801 64.138 60.4986 63.9799 60.1007 63.9799V63.9999Z" fill="#656F79"/>
</svg>
